<svg xmlns="http://www.w3.org/2000/svg" width="1920" height="1080" viewBox="0 0 1920 1080">
  <defs>
    <linearGradient id="bg" x1="0" y1="0" x2="1" y2="1">
      <stop offset="0%" stop-color="#B9C8DA"/>
      <stop offset="48%" stop-color="#334052"/>
      <stop offset="100%" stop-color="#161E2A"/>
    </linearGradient>
    <radialGradient id="profileGlow" cx="22%" cy="12%" r="76%">
      <stop offset="0%" stop-color="#4AB9ED" stop-opacity="0.40"/>
      <stop offset="55%" stop-color="#CBA252" stop-opacity="0.11"/>
      <stop offset="100%" stop-color="#161E2A" stop-opacity="0"/>
    </radialGradient>
    <radialGradient id="signalGlow" cx="84%" cy="18%" r="58%">
      <stop offset="0%" stop-color="#A7F3D0" stop-opacity="0.26"/>
      <stop offset="100%" stop-color="#161E2A" stop-opacity="0"/>
    </radialGradient>
    <filter id="soft"><feGaussianBlur stdDeviation="32"/></filter>
    <filter id="grain" x="0" y="0" width="100%" height="100%">
      <feTurbulence type="fractalNoise" baseFrequency="0.68" numOctaves="2" seed="1493"/>
      <feColorMatrix type="saturate" values="0"/>
      <feComponentTransfer><feFuncA type="table" tableValues="0 0.042"/></feComponentTransfer>
    </filter>
  </defs>
  <rect width="1920" height="1080" fill="url(#bg)"/>
  <rect width="1920" height="1080" fill="url(#profileGlow)"/>
  <rect width="1920" height="1080" fill="url(#signalGlow)"/>
  <circle cx="1513" cy="203" r="128" fill="#A7F3D0" opacity="0.14" filter="url(#soft)"/>
  <path d="M120 90 C60 320,200 650,90 1010" stroke="#CBA252" stroke-opacity="0.070" stroke-width="1.8" fill="none"/>
<path d="M290 90 C230 320,370 650,260 1010" stroke="#CBA252" stroke-opacity="0.070" stroke-width="1.8" fill="none"/>
<path d="M460 90 C400 320,540 650,430 1010" stroke="#CBA252" stroke-opacity="0.070" stroke-width="1.8" fill="none"/>
<path d="M630 90 C570 320,710 650,600 1010" stroke="#CBA252" stroke-opacity="0.070" stroke-width="1.8" fill="none"/>
<path d="M800 90 C740 320,880 650,770 1010" stroke="#CBA252" stroke-opacity="0.070" stroke-width="1.8" fill="none"/>
<path d="M970 90 C910 320,1050 650,940 1010" stroke="#CBA252" stroke-opacity="0.070" stroke-width="1.8" fill="none"/>
<path d="M1140 90 C1080 320,1220 650,1110 1010" stroke="#CBA252" stroke-opacity="0.070" stroke-width="1.8" fill="none"/>
<path d="M1310 90 C1250 320,1390 650,1280 1010" stroke="#CBA252" stroke-opacity="0.070" stroke-width="1.8" fill="none"/>
<path d="M1480 90 C1420 320,1560 650,1450 1010" stroke="#CBA252" stroke-opacity="0.070" stroke-width="1.8" fill="none"/>
<path d="M1650 90 C1590 320,1730 650,1620 1010" stroke="#CBA252" stroke-opacity="0.070" stroke-width="1.8" fill="none"/>
<path d="M1820 90 C1760 320,1900 650,1790 1010" stroke="#CBA252" stroke-opacity="0.070" stroke-width="1.8" fill="none"/>
<path d="M90 150 C440 70,980 240,1830 130" stroke="#4AB9ED" stroke-opacity="0.075" stroke-width="1.8" fill="none"/>
<path d="M90 280 C440 200,980 370,1830 260" stroke="#4AB9ED" stroke-opacity="0.075" stroke-width="1.8" fill="none"/>
<path d="M90 410 C440 330,980 500,1830 390" stroke="#4AB9ED" stroke-opacity="0.075" stroke-width="1.8" fill="none"/>
<path d="M90 540 C440 460,980 630,1830 520" stroke="#4AB9ED" stroke-opacity="0.075" stroke-width="1.8" fill="none"/>
<path d="M90 670 C440 590,980 760,1830 650" stroke="#4AB9ED" stroke-opacity="0.075" stroke-width="1.8" fill="none"/>
<path d="M90 800 C440 720,980 890,1830 780" stroke="#4AB9ED" stroke-opacity="0.075" stroke-width="1.8" fill="none"/>
<path d="M90 930 C440 850,980 1020,1830 910" stroke="#4AB9ED" stroke-opacity="0.075" stroke-width="1.8" fill="none"/>

    <g opacity="0.240">
      <polygon points="1330.0,319.0 1413.1,367.0 1413.1,463.0 1330.0,511.0 1246.9,463.0 1246.9,367.0" fill="#FFFFFF" fill-opacity="0.030" stroke="#A7F3D0" stroke-opacity="0.45" stroke-width="2.4"/>
      <line x1="1330" y1="415" x2="1330.0" y2="319.0" stroke="#4AB9ED" stroke-opacity="0.091" stroke-width="2"/>
<line x1="1330" y1="415" x2="1413.1" y2="367.0" stroke="#4AB9ED" stroke-opacity="0.091" stroke-width="2"/>
<line x1="1330" y1="415" x2="1413.1" y2="463.0" stroke="#4AB9ED" stroke-opacity="0.091" stroke-width="2"/>
<line x1="1330" y1="415" x2="1330.0" y2="511.0" stroke="#4AB9ED" stroke-opacity="0.091" stroke-width="2"/>
<line x1="1330" y1="415" x2="1246.9" y2="463.0" stroke="#4AB9ED" stroke-opacity="0.091" stroke-width="2"/>
<line x1="1330" y1="415" x2="1246.9" y2="367.0" stroke="#4AB9ED" stroke-opacity="0.091" stroke-width="2"/>
      <circle cx="1330" cy="415" r="7" fill="#FFFFFF" fill-opacity="0.55"/>
    </g>
    
  <path d="M -80 748.4 C 190 735.3, 300 695.3, 460 788.3 C 730 836.9, 840 796.9, 1000 816.4 C 1270 754.1, 1380 714.1, 1540 732.9 C 1810 781.2, 1920 741.2, 2080 834.5 L 2020 1080 L -80 1080 Z" fill="#161E2A" opacity="0.52"/>
  <path d="M115 890 C480 820,760 910,1050 825 C1325 750,1540 842,1835 760" fill="none" stroke="#4AB9ED" stroke-opacity="0.16" stroke-width="3"/>
  <g opacity="0.52">
    <line x1="960" y1="165" x2="960" y2="925" stroke="#A7F3D0" stroke-opacity="0.055" stroke-width="1.4"/>
    <line x1="180" y1="540" x2="1740" y2="540" stroke="#4AB9ED" stroke-opacity="0.055" stroke-width="1.4"/>
  </g>
  <rect width="1920" height="1080" filter="url(#grain)" opacity="0.62"/>
</svg>
