<svg xmlns="http://www.w3.org/2000/svg" width="1920" height="1080" viewBox="0 0 1920 1080">
  <defs>
    <linearGradient id="sky" x1="0" y1="0" x2="1" y2="1">
      <stop offset="0%" stop-color="#465076"/>
      <stop offset="46%" stop-color="#1B213C"/>
      <stop offset="100%" stop-color="#0E1225"/>
    </linearGradient>
    <radialGradient id="glowA" cx="18%" cy="12%" r="76%">
      <stop offset="0%" stop-color="#69BAAA" stop-opacity="0.44"/>
      <stop offset="55%" stop-color="#869EF2" stop-opacity="0.12"/>
      <stop offset="100%" stop-color="#0E1225" stop-opacity="0"/>
    </radialGradient>
    <radialGradient id="glowB" cx="86%" cy="18%" r="60%">
      <stop offset="0%" stop-color="#869EF2" stop-opacity="0.38"/>
      <stop offset="100%" stop-color="#0E1225" stop-opacity="0"/>
    </radialGradient>
    <filter id="soft"><feGaussianBlur stdDeviation="34"/></filter>
    <filter id="grain" x="0" y="0" width="100%" height="100%">
      <feTurbulence type="fractalNoise" baseFrequency="0.74" numOctaves="2" seed="126"/>
      <feColorMatrix type="saturate" values="0"/>
      <feComponentTransfer><feFuncA type="table" tableValues="0 0.050"/></feComponentTransfer>
    </filter>
  </defs>
  <rect width="1920" height="1080" fill="url(#sky)"/>
  <rect width="1920" height="1080" fill="url(#glowA)"/>
  <rect width="1920" height="1080" fill="url(#glowB)"/>
  <circle cx="1586" cy="186" r="101" fill="#F472B6" opacity="0.2" filter="url(#soft)"/>
  <path d="M -80 229.8 C 190 270.0, 300 230.0, 460 230.3 C 730 163.6, 840 123.6, 1000 158.7 C 1270 222.1, 1380 182.1, 1540 269.4 C 1810 237.6, 1920 197.6, 2080 169.0 L 2020 1080 L -80 1080 Z" fill="none" stroke="#69BAAA" stroke-opacity="0.180" stroke-width="42" filter="url(#soft)"/>
<path d="M -80 358.1 C 190 329.0, 300 289.0, 460 250.6 C 730 227.3, 840 187.3, 1000 290.2 C 1270 355.5, 1380 315.5, 1540 336.2 C 1810 258.1, 1920 218.1, 2080 225.1 L 2020 1080 L -80 1080 Z" fill="none" stroke="#6FB4B8" stroke-opacity="0.162" stroke-width="39" filter="url(#soft)"/>
<path d="M -80 428.8 C 190 342.7, 300 302.7, 460 298.3 C 730 354.7, 840 314.7, 1000 436.8 C 1270 435.3, 1380 395.3, 1540 352.2 C 1810 298.1, 1920 258.1, 2080 345.1 L 2020 1080 L -80 1080 Z" fill="none" stroke="#75AFC7" stroke-opacity="0.144" stroke-width="36" filter="url(#soft)"/>
<path d="M -80 439.7 C 190 372.9, 300 332.9, 460 416.7 C 730 512.8, 840 472.8, 1000 533.3 C 1270 450.8, 1380 410.8, 1540 375.3 C 1810 407.2, 1920 367.2, 2080 504.1 L 2020 1080 L -80 1080 Z" fill="none" stroke="#7AA9D5" stroke-opacity="0.126" stroke-width="33" filter="url(#soft)"/>
<path d="M -80 452.4 C 190 477.6, 300 437.6, 460 583.2 C 730 628.6, 840 588.6, 1000 553.4 C 1270 457.7, 1380 417.7, 1540 468.9 C 1810 572.1, 1920 532.1, 2080 629.9 L 2020 1080 L -80 1080 Z" fill="none" stroke="#80A4E4" stroke-opacity="0.108" stroke-width="30" filter="url(#soft)"/>
  <path d="M -80 823.9 C 190 852.0, 300 812.0, 460 824.2 C 730 777.5, 840 737.5, 1000 774.1 C 1270 818.5, 1380 778.5, 1540 851.6 C 1810 829.3, 1920 789.3, 2080 781.3 L 2020 1080 L -80 1080 Z" fill="#0E1225" opacity="0.56"/>
  <path d="M100 880 C420 828,680 905,980 840 C1260 780,1510 850,1840 790" fill="none" stroke="#69BAAA" stroke-opacity="0.16" stroke-width="3"/>
  
    <g opacity="0.160">
      <polygon points="1720.0,742.0 1787.5,781.0 1787.5,859.0 1720.0,898.0 1652.5,859.0 1652.5,781.0" fill="#FFFFFF" fill-opacity="0.030" stroke="#69BAAA" stroke-opacity="0.45" stroke-width="2.4"/>
      <line x1="1720" y1="820" x2="1720.0" y2="742.0" stroke="#869EF2" stroke-opacity="0.061" stroke-width="2"/>
<line x1="1720" y1="820" x2="1787.5" y2="781.0" stroke="#869EF2" stroke-opacity="0.061" stroke-width="2"/>
<line x1="1720" y1="820" x2="1787.5" y2="859.0" stroke="#869EF2" stroke-opacity="0.061" stroke-width="2"/>
<line x1="1720" y1="820" x2="1720.0" y2="898.0" stroke="#869EF2" stroke-opacity="0.061" stroke-width="2"/>
<line x1="1720" y1="820" x2="1652.5" y2="859.0" stroke="#869EF2" stroke-opacity="0.061" stroke-width="2"/>
<line x1="1720" y1="820" x2="1652.5" y2="781.0" stroke="#869EF2" stroke-opacity="0.061" stroke-width="2"/>
      <circle cx="1720" cy="820" r="6" fill="#FFFFFF" fill-opacity="0.55"/>
    </g>
    
  <rect width="1920" height="1080" filter="url(#grain)" opacity="0.65"/>
</svg>
