<svg xmlns="http://www.w3.org/2000/svg" width="1920" height="1080" viewBox="0 0 1920 1080">
  <defs>
    <linearGradient id="sky" x1="0" y1="0" x2="1" y2="1">
      <stop offset="0%" stop-color="#060A17"/>
      <stop offset="46%" stop-color="#070C17"/>
      <stop offset="100%" stop-color="#02040B"/>
    </linearGradient>
    <radialGradient id="glowA" cx="18%" cy="12%" r="76%">
      <stop offset="0%" stop-color="#4CBDBF" stop-opacity="0.44"/>
      <stop offset="55%" stop-color="#73A0FF" stop-opacity="0.12"/>
      <stop offset="100%" stop-color="#02040B" stop-opacity="0"/>
    </radialGradient>
    <radialGradient id="glowB" cx="86%" cy="18%" r="60%">
      <stop offset="0%" stop-color="#73A0FF" stop-opacity="0.38"/>
      <stop offset="100%" stop-color="#02040B" stop-opacity="0"/>
    </radialGradient>
    <filter id="soft"><feGaussianBlur stdDeviation="34"/></filter>
    <filter id="grain" x="0" y="0" width="100%" height="100%">
      <feTurbulence type="fractalNoise" baseFrequency="0.74" numOctaves="2" seed="140"/>
      <feColorMatrix type="saturate" values="0"/>
      <feComponentTransfer><feFuncA type="table" tableValues="0 0.050"/></feComponentTransfer>
    </filter>
  </defs>
  <rect width="1920" height="1080" fill="url(#sky)"/>
  <rect width="1920" height="1080" fill="url(#glowA)"/>
  <rect width="1920" height="1080" fill="url(#glowB)"/>
  <circle cx="1600" cy="200" r="115" fill="#8B7CFF" opacity="0.12" filter="url(#soft)"/>
  <path d="M -80 268.8 C 190 218.5, 300 178.5, 460 156.8 C 730 166.0, 840 126.0, 1000 233.7 C 1270 269.9, 1380 229.9, 1540 226.3 C 1810 161.0, 1920 121.0, 2080 161.0 L 2020 1080 L -80 1080 Z" fill="none" stroke="#4CBDBF" stroke-opacity="0.180" stroke-width="42" filter="url(#soft)"/>
<path d="M -80 316.7 C 190 240.5, 300 200.5, 460 232.9 C 730 304.0, 840 264.0, 1000 359.1 C 1270 324.9, 1380 284.9, 1540 246.9 C 1810 229.0, 1920 189.0, 2080 295.0 L 2020 1080 L -80 1080 Z" fill="none" stroke="#54B7CC" stroke-opacity="0.162" stroke-width="39" filter="url(#soft)"/>
<path d="M -80 329.3 C 190 301.1, 300 261.1, 460 370.0 C 730 444.2, 840 404.2, 1000 425.0 C 1270 337.9, 1380 297.9, 1540 298.9 C 1810 359.9, 1920 319.9, 2080 439.7 L 2020 1080 L -80 1080 Z" fill="none" stroke="#5CB1D9" stroke-opacity="0.144" stroke-width="36" filter="url(#soft)"/>
<path d="M -80 372.1 C 190 432.5, 300 392.5, 460 524.2 C 730 525.0, 840 485.0, 1000 434.0 C 1270 372.2, 1380 332.2, 1540 422.0 C 1810 517.0, 1920 477.0, 2080 530.8 L 2020 1080 L -80 1080 Z" fill="none" stroke="#63ACE5" stroke-opacity="0.126" stroke-width="33" filter="url(#soft)"/>
<path d="M -80 492.8 C 190 598.4, 300 558.4, 460 623.6 C 730 534.8, 840 494.8, 1000 450.3 C 1270 482.6, 1380 442.6, 1540 588.7 C 1810 627.3, 1920 587.3, 2080 547.0 L 2020 1080 L -80 1080 Z" fill="none" stroke="#6BA6F2" stroke-opacity="0.108" stroke-width="30" filter="url(#soft)"/>
  <path d="M -80 851.2 C 190 815.9, 300 775.9, 460 772.8 C 730 779.2, 840 739.2, 1000 826.6 C 1270 851.9, 1380 811.9, 1540 821.4 C 1810 775.7, 1920 735.7, 2080 775.7 L 2020 1080 L -80 1080 Z" fill="#02040B" opacity="0.56"/>
  <path d="M100 880 C420 828,680 905,980 840 C1260 780,1510 850,1840 790" fill="none" stroke="#4CBDBF" stroke-opacity="0.16" stroke-width="3"/>

    <g opacity="0.160">
      <polygon points="1720.0,742.0 1787.5,781.0 1787.5,859.0 1720.0,898.0 1652.5,859.0 1652.5,781.0" fill="#FFFFFF" fill-opacity="0.030" stroke="#4CBDBF" stroke-opacity="0.45" stroke-width="2.4"/>
      <line x1="1720" y1="820" x2="1720.0" y2="742.0" stroke="#73A0FF" stroke-opacity="0.061" stroke-width="2"/>
<line x1="1720" y1="820" x2="1787.5" y2="781.0" stroke="#73A0FF" stroke-opacity="0.061" stroke-width="2"/>
<line x1="1720" y1="820" x2="1787.5" y2="859.0" stroke="#73A0FF" stroke-opacity="0.061" stroke-width="2"/>
<line x1="1720" y1="820" x2="1720.0" y2="898.0" stroke="#73A0FF" stroke-opacity="0.061" stroke-width="2"/>
<line x1="1720" y1="820" x2="1652.5" y2="859.0" stroke="#73A0FF" stroke-opacity="0.061" stroke-width="2"/>
<line x1="1720" y1="820" x2="1652.5" y2="781.0" stroke="#73A0FF" stroke-opacity="0.061" stroke-width="2"/>
      <circle cx="1720" cy="820" r="6" fill="#FFFFFF" fill-opacity="0.55"/>
    </g>

  <rect width="1920" height="1080" filter="url(#grain)" opacity="0.65"/>
</svg>
