<svg xmlns="http://www.w3.org/2000/svg" width="1920" height="1080" viewBox="0 0 1920 1080">
  <defs>
    <linearGradient id="sky" x1="0" y1="0" x2="1" y2="1">
      <stop offset="0%" stop-color="#F7FBFF"/>
      <stop offset="46%" stop-color="#AEC2DB"/>
      <stop offset="100%" stop-color="#526A8F"/>
    </linearGradient>
    <radialGradient id="glowA" cx="18%" cy="12%" r="76%">
      <stop offset="0%" stop-color="#4DD2BF" stop-opacity="0.44"/>
      <stop offset="55%" stop-color="#74AEFF" stop-opacity="0.12"/>
      <stop offset="100%" stop-color="#526A8F" stop-opacity="0"/>
    </radialGradient>
    <radialGradient id="glowB" cx="86%" cy="18%" r="60%">
      <stop offset="0%" stop-color="#74AEFF" stop-opacity="0.38"/>
      <stop offset="100%" stop-color="#526A8F" stop-opacity="0"/>
    </radialGradient>
    <filter id="soft"><feGaussianBlur stdDeviation="34"/></filter>
    <filter id="grain" x="0" y="0" width="100%" height="100%">
      <feTurbulence type="fractalNoise" baseFrequency="0.74" numOctaves="2" seed="105"/>
      <feColorMatrix type="saturate" values="0"/>
      <feComponentTransfer><feFuncA type="table" tableValues="0 0.050"/></feComponentTransfer>
    </filter>
  </defs>
  <rect width="1920" height="1080" fill="url(#sky)"/>
  <rect width="1920" height="1080" fill="url(#glowA)"/>
  <rect width="1920" height="1080" fill="url(#glowB)"/>
  <circle cx="1565" cy="165" r="120" fill="#8FC9FF" opacity="0.2" filter="url(#soft)"/>
  <path d="M -80 151.8 C 190 176.9, 300 136.9, 460 246.1 C 730 267.2, 840 227.2, 1000 212.1 C 1270 154.2, 1380 114.2, 1540 170.6 C 1810 239.4, 1920 199.4, 2080 269.1 L 2020 1080 L -80 1080 Z" fill="none" stroke="#4DD2BF" stroke-opacity="0.180" stroke-width="42" filter="url(#soft)"/>
<path d="M -80 242.6 C 190 319.5, 300 279.5, 460 359.8 C 730 309.9, 840 269.9, 1000 236.1 C 1270 236.8, 1380 196.8, 1540 311.0 C 1810 359.9, 1920 319.9, 2080 318.4 L 2020 1080 L -80 1080 Z" fill="none" stroke="#55CBCC" stroke-opacity="0.162" stroke-width="39" filter="url(#soft)"/>
<path d="M -80 388.0 C 190 449.1, 300 409.1, 460 410.2 C 730 323.1, 840 283.1, 1000 303.8 C 1270 378.0, 1380 338.0, 1540 446.9 C 1810 418.7, 1920 378.7, 2080 331.0 L 2020 1080 L -80 1080 Z" fill="none" stroke="#5DC4D9" stroke-opacity="0.144" stroke-width="36" filter="url(#soft)"/>
<path d="M -80 533.9 C 190 511.8, 300 471.8, 460 415.4 C 730 373.1, 840 333.1, 1000 441.2 C 1270 529.0, 1380 489.0, 1540 519.6 C 1810 425.5, 1920 385.5, 2080 372.0 L 2020 1080 L -80 1080 Z" fill="none" stroke="#64BCE5" stroke-opacity="0.126" stroke-width="33" filter="url(#soft)"/>
<path d="M -80 613.1 C 190 513.1, 300 473.1, 460 446.2 C 730 501.6, 840 461.6, 1000 605.4 C 1270 619.5, 1380 579.5, 1540 525.1 C 1810 447.8, 1920 407.8, 2080 490.7 L 2020 1080 L -80 1080 Z" fill="none" stroke="#6CB5F2" stroke-opacity="0.108" stroke-width="30" filter="url(#soft)"/>
  <path d="M -80 769.2 C 190 786.8, 300 746.8, 460 835.3 C 730 850.1, 840 810.1, 1000 811.5 C 1270 770.9, 1380 730.9, 1540 782.4 C 1810 830.6, 1920 790.6, 2080 851.4 L 2020 1080 L -80 1080 Z" fill="#526A8F" opacity="0.32"/>
  <path d="M100 880 C420 828,680 905,980 840 C1260 780,1510 850,1840 790" fill="none" stroke="#4DD2BF" stroke-opacity="0.16" stroke-width="3"/>
  
    <g opacity="0.160">
      <polygon points="1720.0,742.0 1787.5,781.0 1787.5,859.0 1720.0,898.0 1652.5,859.0 1652.5,781.0" fill="#FFFFFF" fill-opacity="0.030" stroke="#4DD2BF" stroke-opacity="0.45" stroke-width="2.4"/>
      <line x1="1720" y1="820" x2="1720.0" y2="742.0" stroke="#74AEFF" stroke-opacity="0.061" stroke-width="2"/>
<line x1="1720" y1="820" x2="1787.5" y2="781.0" stroke="#74AEFF" stroke-opacity="0.061" stroke-width="2"/>
<line x1="1720" y1="820" x2="1787.5" y2="859.0" stroke="#74AEFF" stroke-opacity="0.061" stroke-width="2"/>
<line x1="1720" y1="820" x2="1720.0" y2="898.0" stroke="#74AEFF" stroke-opacity="0.061" stroke-width="2"/>
<line x1="1720" y1="820" x2="1652.5" y2="859.0" stroke="#74AEFF" stroke-opacity="0.061" stroke-width="2"/>
<line x1="1720" y1="820" x2="1652.5" y2="781.0" stroke="#74AEFF" stroke-opacity="0.061" stroke-width="2"/>
      <circle cx="1720" cy="820" r="6" fill="#FFFFFF" fill-opacity="0.55"/>
    </g>
    
  <rect width="1920" height="1080" filter="url(#grain)" opacity="0.65"/>
</svg>
