<svg xmlns="http://www.w3.org/2000/svg" width="1920" height="1080" viewBox="0 0 1920 1080">
  <defs>
    <linearGradient id="sky" x1="0" y1="0" x2="1" y2="1">
      <stop offset="0%" stop-color="#C8D6EA"/>
      <stop offset="46%" stop-color="#485670"/>
      <stop offset="100%" stop-color="#212B3C"/>
    </linearGradient>
    <radialGradient id="glowA" cx="18%" cy="12%" r="76%">
      <stop offset="0%" stop-color="#4ED9B3" stop-opacity="0.44"/>
      <stop offset="55%" stop-color="#75B2F7" stop-opacity="0.12"/>
      <stop offset="100%" stop-color="#212B3C" stop-opacity="0"/>
    </radialGradient>
    <radialGradient id="glowB" cx="86%" cy="18%" r="60%">
      <stop offset="0%" stop-color="#75B2F7" stop-opacity="0.38"/>
      <stop offset="100%" stop-color="#212B3C" stop-opacity="0"/>
    </radialGradient>
    <filter id="soft"><feGaussianBlur stdDeviation="34"/></filter>
    <filter id="grain" x="0" y="0" width="100%" height="100%">
      <feTurbulence type="fractalNoise" baseFrequency="0.74" numOctaves="2" seed="147"/>
      <feColorMatrix type="saturate" values="0"/>
      <feComponentTransfer><feFuncA type="table" tableValues="0 0.050"/></feComponentTransfer>
    </filter>
  </defs>
  <rect width="1920" height="1080" fill="url(#sky)"/>
  <rect width="1920" height="1080" fill="url(#glowA)"/>
  <rect width="1920" height="1080" fill="url(#glowB)"/>
  <circle cx="1607" cy="207" r="122" fill="#94E2D5" opacity="0.2" filter="url(#soft)"/>
  <path d="M -80 246.5 C 190 177.4, 300 137.4, 460 151.6 C 730 203.6, 840 163.6, 1000 264.1 C 1270 252.5, 1380 212.5, 1540 184.3 C 1810 150.3, 1920 110.3, 2080 195.8 L 2020 1080 L -80 1080 Z" fill="none" stroke="#4ED9B3" stroke-opacity="0.180" stroke-width="42" filter="url(#soft)"/>
<path d="M -80 269.0 C 190 224.0, 300 184.0, 460 269.6 C 730 345.0, 840 305.0, 1000 349.9 C 1270 277.7, 1380 237.7, 1540 224.6 C 1810 261.2, 1920 221.2, 2080 338.9 L 2020 1080 L -80 1080 Z" fill="none" stroke="#56D1C1" stroke-opacity="0.162" stroke-width="39" filter="url(#soft)"/>
<path d="M -80 299.9 C 190 333.2, 300 293.2, 460 420.8 C 730 446.1, 840 406.1, 1000 375.4 C 1270 302.8, 1380 262.8, 1540 325.1 C 1810 412.4, 1920 372.4, 2080 448.6 L 2020 1080 L -80 1080 Z" fill="none" stroke="#5EC9CE" stroke-opacity="0.144" stroke-width="36" filter="url(#soft)"/>
<path d="M -80 396.0 C 190 491.3, 300 451.3, 460 539.6 C 730 476.6, 840 436.6, 1000 386.1 C 1270 388.7, 1380 348.7, 1540 480.9 C 1810 539.9, 1920 499.9, 2080 487.3 L 2020 1080 L -80 1080 Z" fill="none" stroke="#65C2DC" stroke-opacity="0.126" stroke-width="33" filter="url(#soft)"/>
<path d="M -80 556.6 C 190 629.1, 300 589.1, 460 580.3 C 730 475.2, 840 435.2, 1000 453.7 C 1270 544.5, 1380 504.5, 1540 626.7 C 1810 590.8, 1920 550.8, 2080 484.6 L 2020 1080 L -80 1080 Z" fill="none" stroke="#6DBAE9" stroke-opacity="0.108" stroke-width="30" filter="url(#soft)"/>
  <path d="M -80 835.6 C 190 787.2, 300 747.2, 460 769.1 C 730 805.5, 840 765.5, 1000 847.9 C 1270 839.8, 1380 799.8, 1540 792.0 C 1810 768.2, 1920 728.2, 2080 800.0 L 2020 1080 L -80 1080 Z" fill="#212B3C" opacity="0.56"/>
  <path d="M100 880 C420 828,680 905,980 840 C1260 780,1510 850,1840 790" fill="none" stroke="#4ED9B3" stroke-opacity="0.16" stroke-width="3"/>

    <g opacity="0.160">
      <polygon points="1720.0,742.0 1787.5,781.0 1787.5,859.0 1720.0,898.0 1652.5,859.0 1652.5,781.0" fill="#FFFFFF" fill-opacity="0.030" stroke="#4ED9B3" stroke-opacity="0.45" stroke-width="2.4"/>
      <line x1="1720" y1="820" x2="1720.0" y2="742.0" stroke="#75B2F7" stroke-opacity="0.061" stroke-width="2"/>
<line x1="1720" y1="820" x2="1787.5" y2="781.0" stroke="#75B2F7" stroke-opacity="0.061" stroke-width="2"/>
<line x1="1720" y1="820" x2="1787.5" y2="859.0" stroke="#75B2F7" stroke-opacity="0.061" stroke-width="2"/>
<line x1="1720" y1="820" x2="1720.0" y2="898.0" stroke="#75B2F7" stroke-opacity="0.061" stroke-width="2"/>
<line x1="1720" y1="820" x2="1652.5" y2="859.0" stroke="#75B2F7" stroke-opacity="0.061" stroke-width="2"/>
<line x1="1720" y1="820" x2="1652.5" y2="781.0" stroke="#75B2F7" stroke-opacity="0.061" stroke-width="2"/>
      <circle cx="1720" cy="820" r="6" fill="#FFFFFF" fill-opacity="0.55"/>
    </g>

  <rect width="1920" height="1080" filter="url(#grain)" opacity="0.65"/>
</svg>
