<svg xmlns="http://www.w3.org/2000/svg" width="1920" height="1080" viewBox="0 0 1920 1080">
  <defs>
    <linearGradient id="sky" x1="0" y1="0" x2="1" y2="1">
      <stop offset="0%" stop-color="#DDE8F6"/>
      <stop offset="46%" stop-color="#5F7BA2"/>
      <stop offset="100%" stop-color="#2F4668"/>
    </linearGradient>
    <radialGradient id="glowA" cx="18%" cy="12%" r="76%">
      <stop offset="0%" stop-color="#62C996" stop-opacity="0.44"/>
      <stop offset="55%" stop-color="#82A8E5" stop-opacity="0.12"/>
      <stop offset="100%" stop-color="#2F4668" stop-opacity="0"/>
    </radialGradient>
    <radialGradient id="glowB" cx="86%" cy="18%" r="60%">
      <stop offset="0%" stop-color="#82A8E5" stop-opacity="0.38"/>
      <stop offset="100%" stop-color="#2F4668" stop-opacity="0"/>
    </radialGradient>
    <filter id="soft"><feGaussianBlur stdDeviation="34"/></filter>
    <filter id="grain" x="0" y="0" width="100%" height="100%">
      <feTurbulence type="fractalNoise" baseFrequency="0.74" numOctaves="2" seed="112"/>
      <feColorMatrix type="saturate" values="0"/>
      <feComponentTransfer><feFuncA type="table" tableValues="0 0.050"/></feComponentTransfer>
    </filter>
  </defs>
  <rect width="1920" height="1080" fill="url(#sky)"/>
  <rect width="1920" height="1080" fill="url(#glowA)"/>
  <rect width="1920" height="1080" fill="url(#glowB)"/>
  <circle cx="1572" cy="172" r="127" fill="#DCA76E" opacity="0.2" filter="url(#soft)"/>
  <path d="M -80 156.6 C 190 217.9, 300 177.9, 460 268.7 C 730 241.3, 840 201.3, 1000 172.2 C 1270 153.4, 1380 113.4, 1540 210.0 C 1810 266.5, 1920 226.5, 2080 247.8 L 2020 1080 L -80 1080 Z" fill="none" stroke="#62C996" stroke-opacity="0.180" stroke-width="42" filter="url(#soft)"/>
<path d="M -80 285.4 C 190 353.6, 300 313.6, 460 339.8 C 730 262.4, 840 222.4, 1000 224.4 C 1270 276.5, 1380 236.5, 1540 349.2 C 1810 345.8, 1920 305.8, 2080 270.7 L 2020 1080 L -80 1080 Z" fill="none" stroke="#68C2A6" stroke-opacity="0.162" stroke-width="39" filter="url(#soft)"/>
<path d="M -80 433.7 C 190 438.3, 300 398.3, 460 357.3 C 730 298.5, 840 258.5, 1000 340.2 C 1270 426.9, 1380 386.9, 1540 443.1 C 1810 367.3, 1920 327.3, 2080 300.4 L 2020 1080 L -80 1080 Z" fill="none" stroke="#6FBCB6" stroke-opacity="0.144" stroke-width="36" filter="url(#soft)"/>
<path d="M -80 535.4 C 190 456.7, 300 416.7, 460 377.1 C 730 402.5, 840 362.5, 1000 499.1 C 1270 538.3, 1380 498.3, 1540 467.9 C 1810 381.6, 1920 341.6, 2080 394.4 L 2020 1080 L -80 1080 Z" fill="none" stroke="#75B5C5" stroke-opacity="0.126" stroke-width="33" filter="url(#soft)"/>
<path d="M -80 559.8 C 190 461.0, 300 421.0, 460 464.8 C 730 566.0, 840 526.0, 1000 630.0 C 1270 571.4, 1380 531.4, 1540 468.4 C 1810 458.0, 1920 418.0, 2080 554.1 L 2020 1080 L -80 1080 Z" fill="none" stroke="#7CAFD5" stroke-opacity="0.108" stroke-width="30" filter="url(#soft)"/>
  <path d="M -80 772.6 C 190 815.6, 300 775.6, 460 851.1 C 730 831.9, 840 791.9, 1000 783.6 C 1270 770.4, 1380 730.4, 1540 810.0 C 1810 849.6, 1920 809.6, 2080 836.5 L 2020 1080 L -80 1080 Z" fill="#2F4668" opacity="0.56"/>
  <path d="M100 880 C420 828,680 905,980 840 C1260 780,1510 850,1840 790" fill="none" stroke="#62C996" stroke-opacity="0.16" stroke-width="3"/>
  
    <g opacity="0.160">
      <polygon points="1720.0,742.0 1787.5,781.0 1787.5,859.0 1720.0,898.0 1652.5,859.0 1652.5,781.0" fill="#FFFFFF" fill-opacity="0.030" stroke="#62C996" stroke-opacity="0.45" stroke-width="2.4"/>
      <line x1="1720" y1="820" x2="1720.0" y2="742.0" stroke="#82A8E5" stroke-opacity="0.061" stroke-width="2"/>
<line x1="1720" y1="820" x2="1787.5" y2="781.0" stroke="#82A8E5" stroke-opacity="0.061" stroke-width="2"/>
<line x1="1720" y1="820" x2="1787.5" y2="859.0" stroke="#82A8E5" stroke-opacity="0.061" stroke-width="2"/>
<line x1="1720" y1="820" x2="1720.0" y2="898.0" stroke="#82A8E5" stroke-opacity="0.061" stroke-width="2"/>
<line x1="1720" y1="820" x2="1652.5" y2="859.0" stroke="#82A8E5" stroke-opacity="0.061" stroke-width="2"/>
<line x1="1720" y1="820" x2="1652.5" y2="781.0" stroke="#82A8E5" stroke-opacity="0.061" stroke-width="2"/>
      <circle cx="1720" cy="820" r="6" fill="#FFFFFF" fill-opacity="0.55"/>
    </g>
    
  <rect width="1920" height="1080" filter="url(#grain)" opacity="0.65"/>
</svg>
