<svg xmlns="http://www.w3.org/2000/svg" width="1920" height="1080" viewBox="0 0 1920 1080">
  <defs>
    <linearGradient id="bg" x1="0" y1="0" x2="1" y2="1">
      <stop offset="0%" stop-color="#B9C8DA"/>
      <stop offset="48%" stop-color="#334052"/>
      <stop offset="100%" stop-color="#161E2A"/>
    </linearGradient>
    <radialGradient id="profileGlow" cx="22%" cy="12%" r="76%">
      <stop offset="0%" stop-color="#C8A258" stop-opacity="0.40"/>
      <stop offset="55%" stop-color="#3E8F7B" stop-opacity="0.11"/>
      <stop offset="100%" stop-color="#161E2A" stop-opacity="0"/>
    </radialGradient>
    <radialGradient id="signalGlow" cx="84%" cy="18%" r="58%">
      <stop offset="0%" stop-color="#C94563" stop-opacity="0.26"/>
      <stop offset="100%" stop-color="#161E2A" stop-opacity="0"/>
    </radialGradient>
    <filter id="soft"><feGaussianBlur stdDeviation="32"/></filter>
    <filter id="grain" x="0" y="0" width="100%" height="100%">
      <feTurbulence type="fractalNoise" baseFrequency="0.68" numOctaves="2" seed="1129"/>
      <feColorMatrix type="saturate" values="0"/>
      <feComponentTransfer><feFuncA type="table" tableValues="0 0.042"/></feComponentTransfer>
    </filter>
  </defs>
  <rect width="1920" height="1080" fill="url(#bg)"/>
  <rect width="1920" height="1080" fill="url(#profileGlow)"/>
  <rect width="1920" height="1080" fill="url(#signalGlow)"/>
  <circle cx="1509" cy="199" r="114" fill="#C94563" opacity="0.14" filter="url(#soft)"/>
  <ellipse cx="380" cy="228.7" rx="160" ry="72" fill="#3E8F7B" opacity="0.11" filter="url(#soft)"/>
<ellipse cx="570" cy="231.9" rx="188" ry="90" fill="#4F8678" opacity="0.11" filter="url(#soft)"/>
<ellipse cx="760" cy="260.9" rx="216" ry="72" fill="#617C75" opacity="0.11" filter="url(#soft)"/>
<ellipse cx="950" cy="289.1" rx="160" ry="90" fill="#727372" opacity="0.11" filter="url(#soft)"/>
<ellipse cx="1140" cy="290.5" rx="188" ry="72" fill="#846A6F" opacity="0.11" filter="url(#soft)"/>
<ellipse cx="1330" cy="263.9" rx="216" ry="90" fill="#95616C" opacity="0.11" filter="url(#soft)"/>
<ellipse cx="1520" cy="233.7" rx="160" ry="72" fill="#A65869" opacity="0.11" filter="url(#soft)"/>
<path d="M300 210 C242.9561887804441 410,339.9306678536891 650,336 980" fill="none" stroke="#C8A258" stroke-opacity="0.150" stroke-width="8" stroke-linecap="round"/>
<path d="M465 210 C406.70467980546186 410,505.80672413617674 650,501 980" fill="none" stroke="#BAA05C" stroke-opacity="0.157" stroke-width="9" stroke-linecap="round"/>
<path d="M630 210 C601.7357374319981 410,649.7849837976013 650,666 980" fill="none" stroke="#AC9E5F" stroke-opacity="0.164" stroke-width="10" stroke-linecap="round"/>
<path d="M795 210 C811.9340275786703 410,783.1461806949308 650,831 980" fill="none" stroke="#9F9C62" stroke-opacity="0.171" stroke-width="8" stroke-linecap="round"/>
<path d="M960 210 C1013.0451415370326 410,922.8684009240772 650,996 980" fill="none" stroke="#919A66" stroke-opacity="0.178" stroke-width="9" stroke-linecap="round"/>
<path d="M1125 210 C1185.6910516422959 410,1082.516263850393 650,1161 980" fill="none" stroke="#83986A" stroke-opacity="0.185" stroke-width="10" stroke-linecap="round"/>
<path d="M1290 210 C1325.7687923167957 410,1264.961845378243 650,1326 980" fill="none" stroke="#75976D" stroke-opacity="0.192" stroke-width="8" stroke-linecap="round"/>
<path d="M1455 210 C1446.6522027402218 410,1460.8434580818448 650,1491 980" fill="none" stroke="#679570" stroke-opacity="0.199" stroke-width="9" stroke-linecap="round"/>
<path d="M1620 210 C1572.015227014014 410,1653.5893410901901 650,1656 980" fill="none" stroke="#5A9374" stroke-opacity="0.206" stroke-width="10" stroke-linecap="round"/>
  <path d="M -80 735.3 C 190 748.5, 300 708.5, 460 810.3 C 730 838.4, 840 798.4, 1000 795.5 C 1270 738.6, 1380 698.6, 1540 743.5 C 1810 803.7, 1920 763.7, 2080 839.0 L 2020 1080 L -80 1080 Z" fill="#161E2A" opacity="0.52"/>
  <path d="M115 890 C480 820,760 910,1050 825 C1325 750,1540 842,1835 760" fill="none" stroke="#C8A258" stroke-opacity="0.16" stroke-width="3"/>
  <g opacity="0.52">
    <line x1="960" y1="165" x2="960" y2="925" stroke="#C94563" stroke-opacity="0.055" stroke-width="1.4"/>
    <line x1="180" y1="540" x2="1740" y2="540" stroke="#C8A258" stroke-opacity="0.055" stroke-width="1.4"/>
  </g>
  <rect width="1920" height="1080" filter="url(#grain)" opacity="0.62"/>
</svg>
