<svg xmlns="http://www.w3.org/2000/svg" width="1920" height="1080" viewBox="0 0 1920 1080">
  <defs>
    <linearGradient id="bg" x1="0" y1="0" x2="1" y2="1">
      <stop offset="0%" stop-color="#121826"/>
      <stop offset="48%" stop-color="#060A15"/>
      <stop offset="100%" stop-color="#02050E"/>
    </linearGradient>
    <radialGradient id="profileGlow" cx="22%" cy="12%" r="76%">
      <stop offset="0%" stop-color="#C1A264" stop-opacity="0.40"/>
      <stop offset="55%" stop-color="#389084" stop-opacity="0.11"/>
      <stop offset="100%" stop-color="#02050E" stop-opacity="0"/>
    </radialGradient>
    <radialGradient id="signalGlow" cx="84%" cy="18%" r="58%">
      <stop offset="0%" stop-color="#C94563" stop-opacity="0.26"/>
      <stop offset="100%" stop-color="#02050E" stop-opacity="0"/>
    </radialGradient>
    <filter id="soft"><feGaussianBlur stdDeviation="32"/></filter>
    <filter id="grain" x="0" y="0" width="100%" height="100%">
      <feTurbulence type="fractalNoise" baseFrequency="0.68" numOctaves="2" seed="1155"/>
      <feColorMatrix type="saturate" values="0"/>
      <feComponentTransfer><feFuncA type="table" tableValues="0 0.042"/></feComponentTransfer>
    </filter>
  </defs>
  <rect width="1920" height="1080" fill="url(#bg)"/>
  <rect width="1920" height="1080" fill="url(#profileGlow)"/>
  <rect width="1920" height="1080" fill="url(#signalGlow)"/>
  <circle cx="1535" cy="225" r="140" fill="#C94563" opacity="0.09" filter="url(#soft)"/>
  <ellipse cx="380" cy="229.6" rx="160" ry="72" fill="#389084" opacity="0.11" filter="url(#soft)"/>
<ellipse cx="570" cy="256.4" rx="188" ry="90" fill="#4A8780" opacity="0.11" filter="url(#soft)"/>
<ellipse cx="760" cy="286.5" rx="216" ry="72" fill="#5C7D7C" opacity="0.11" filter="url(#soft)"/>
<ellipse cx="950" cy="292.2" rx="160" ry="90" fill="#6E7478" opacity="0.11" filter="url(#soft)"/>
<ellipse cx="1140" cy="268.3" rx="188" ry="72" fill="#806A74" opacity="0.11" filter="url(#soft)"/>
<ellipse cx="1330" cy="236.8" rx="216" ry="90" fill="#93616F" opacity="0.11" filter="url(#soft)"/>
<ellipse cx="1520" cy="226.6" rx="160" ry="72" fill="#A5586B" opacity="0.11" filter="url(#soft)"/>
<path d="M300 210 C244.57471936484177 410,338.7976964446108 650,336 980" fill="none" stroke="#C1A264" stroke-opacity="0.150" stroke-width="8" stroke-linecap="round"/>
<path d="M465 210 C443.38566507931034 410,480.13003444448276 650,501 980" fill="none" stroke="#B3A067" stroke-opacity="0.157" stroke-width="9" stroke-linecap="round"/>
<path d="M630 210 C653.7953440959996 410,613.3432591328003 650,666 980" fill="none" stroke="#A69E6A" stroke-opacity="0.164" stroke-width="10" stroke-linecap="round"/>
<path d="M795 210 C851.4359117328202 410,755.4948617870259 650,831 980" fill="none" stroke="#989D6E" stroke-opacity="0.171" stroke-width="8" stroke-linecap="round"/>
<path d="M960 210 C1018.7917127433004 410,918.8458010796896 650,996 980" fill="none" stroke="#8A9B71" stroke-opacity="0.178" stroke-width="9" stroke-linecap="round"/>
<path d="M1125 210 C1154.5985718597801 410,1104.280999698154 650,1161 980" fill="none" stroke="#7C9974" stroke-opacity="0.185" stroke-width="10" stroke-linecap="round"/>
<path d="M1290 210 C1274.5221783854254 410,1300.8344751302022 650,1326 980" fill="none" stroke="#6F9777" stroke-opacity="0.192" stroke-width="8" stroke-linecap="round"/>
<path d="M1455 210 C1402.7515285606223 410,1491.5739300075643 650,1491 980" fill="none" stroke="#61957A" stroke-opacity="0.199" stroke-width="9" stroke-linecap="round"/>
<path d="M1620 210 C1559.0185716788458 410,1662.686999824808 650,1656 980" fill="none" stroke="#53947E" stroke-opacity="0.206" stroke-width="10" stroke-linecap="round"/>
  <path d="M -80 736.7 C 190 791.7, 300 751.7, 460 837.7 C 730 813.6, 840 773.6, 1000 751.4 C 1270 733.9, 1380 693.9, 1540 784.5 C 1810 835.7, 1920 795.7, 2080 819.4 L 2020 1080 L -80 1080 Z" fill="#02050E" opacity="0.52"/>
  <path d="M115 890 C480 820,760 910,1050 825 C1325 750,1540 842,1835 760" fill="none" stroke="#C1A264" stroke-opacity="0.16" stroke-width="3"/>
  <g opacity="0.7">
    <line x1="960" y1="165" x2="960" y2="925" stroke="#C94563" stroke-opacity="0.055" stroke-width="1.4"/>
    <line x1="180" y1="540" x2="1740" y2="540" stroke="#C1A264" stroke-opacity="0.055" stroke-width="1.4"/>
  </g>
  <rect width="1920" height="1080" filter="url(#grain)" opacity="0.62"/>
</svg>
