<svg xmlns="http://www.w3.org/2000/svg" width="1920" height="1080" viewBox="0 0 1920 1080">
  <defs>
    <linearGradient id="bg" x1="0" y1="0" x2="1" y2="1">
      <stop offset="0%" stop-color="#C9D3E2"/>
      <stop offset="48%" stop-color="#4D5B6F"/>
      <stop offset="100%" stop-color="#242D3C"/>
    </linearGradient>
    <radialGradient id="profileGlow" cx="22%" cy="12%" r="76%">
      <stop offset="0%" stop-color="#C7A157" stop-opacity="0.40"/>
      <stop offset="55%" stop-color="#3D8E7A" stop-opacity="0.11"/>
      <stop offset="100%" stop-color="#242D3C" stop-opacity="0"/>
    </radialGradient>
    <radialGradient id="signalGlow" cx="84%" cy="18%" r="58%">
      <stop offset="0%" stop-color="#C94563" stop-opacity="0.26"/>
      <stop offset="100%" stop-color="#242D3C" stop-opacity="0"/>
    </radialGradient>
    <filter id="soft"><feGaussianBlur stdDeviation="32"/></filter>
    <filter id="grain" x="0" y="0" width="100%" height="100%">
      <feTurbulence type="fractalNoise" baseFrequency="0.68" numOctaves="2" seed="1116"/>
      <feColorMatrix type="saturate" values="0"/>
      <feComponentTransfer><feFuncA type="table" tableValues="0 0.042"/></feComponentTransfer>
    </filter>
  </defs>
  <rect width="1920" height="1080" fill="url(#bg)"/>
  <rect width="1920" height="1080" fill="url(#profileGlow)"/>
  <rect width="1920" height="1080" fill="url(#signalGlow)"/>
  <circle cx="1496" cy="186" r="171" fill="#C94563" opacity="0.14" filter="url(#soft)"/>
  <ellipse cx="380" cy="237.2" rx="160" ry="72" fill="#3D8E7A" opacity="0.11" filter="url(#soft)"/>
<ellipse cx="570" cy="226.5" rx="188" ry="90" fill="#4E8577" opacity="0.11" filter="url(#soft)"/>
<ellipse cx="760" cy="246.5" rx="216" ry="72" fill="#607C74" opacity="0.11" filter="url(#soft)"/>
<ellipse cx="950" cy="279.0" rx="160" ry="90" fill="#727371" opacity="0.11" filter="url(#soft)"/>
<ellipse cx="1140" cy="294.0" rx="188" ry="72" fill="#836A6E" opacity="0.11" filter="url(#soft)"/>
<ellipse cx="1330" cy="277.7" rx="216" ry="90" fill="#94606C" opacity="0.11" filter="url(#soft)"/>
<ellipse cx="1520" cy="245.2" rx="160" ry="72" fill="#A65769" opacity="0.11" filter="url(#soft)"/>
<path d="M300 210 C258.44163012057965 410,329.09085891559425 650,336 980" fill="none" stroke="#C7A157" stroke-opacity="0.150" stroke-width="8" stroke-linecap="round"/>
<path d="M465 210 C403.2301388710338 410,508.23890279027637 650,501 980" fill="none" stroke="#B99F5A" stroke-opacity="0.157" stroke-width="9" stroke-linecap="round"/>
<path d="M630 210 C581.1657302395278 410,664.1839888323306 650,666 980" fill="none" stroke="#AB9D5E" stroke-opacity="0.164" stroke-width="10" stroke-linecap="round"/>
<path d="M795 210 C785.3068779223283 410,801.7851854543702 650,831 980" fill="none" stroke="#9E9B62" stroke-opacity="0.171" stroke-width="8" stroke-linecap="round"/>
<path d="M960 210 C994.6495707027373 410,935.7453005080839 650,996 980" fill="none" stroke="#909965" stroke-opacity="0.178" stroke-width="9" stroke-linecap="round"/>
<path d="M1125 210 C1185.3985324665705 410,1082.7210272734008 650,1161 980" fill="none" stroke="#829868" stroke-opacity="0.185" stroke-width="10" stroke-linecap="round"/>
<path d="M1290 210 C1343.73629710147 410,1252.3845920289712 650,1326 980" fill="none" stroke="#74966C" stroke-opacity="0.192" stroke-width="8" stroke-linecap="round"/>
<path d="M1455 210 C1473.237968420714 410,1442.2334221055003 650,1491 980" fill="none" stroke="#669470" stroke-opacity="0.199" stroke-width="9" stroke-linecap="round"/>
<path d="M1620 210 C1592.9527398671473 410,1638.933082092997 650,1656 980" fill="none" stroke="#599273" stroke-opacity="0.206" stroke-width="10" stroke-linecap="round"/>
  <path d="M -80 748.8 C 190 735.1, 300 695.1, 460 787.9 C 730 836.8, 840 796.8, 1000 816.8 C 1270 754.4, 1380 714.4, 1540 732.8 C 1810 780.7, 1920 740.7, 2080 834.3 L 2020 1080 L -80 1080 Z" fill="#242D3C" opacity="0.52"/>
  <path d="M115 890 C480 820,760 910,1050 825 C1325 750,1540 842,1835 760" fill="none" stroke="#C7A157" stroke-opacity="0.16" stroke-width="3"/>
  <g opacity="0.52">
    <line x1="960" y1="165" x2="960" y2="925" stroke="#C94563" stroke-opacity="0.055" stroke-width="1.4"/>
    <line x1="180" y1="540" x2="1740" y2="540" stroke="#C7A157" stroke-opacity="0.055" stroke-width="1.4"/>
  </g>
  <rect width="1920" height="1080" filter="url(#grain)" opacity="0.62"/>
</svg>
