<svg xmlns="http://www.w3.org/2000/svg" width="1920" height="1080" viewBox="0 0 1920 1080">
  <defs>
    <linearGradient id="bg" x1="0" y1="0" x2="1" y2="1">
      <stop offset="0%" stop-color="#505A78"/>
      <stop offset="48%" stop-color="#182032"/>
      <stop offset="100%" stop-color="#0D1320"/>
    </linearGradient>
    <radialGradient id="profileGlow" cx="22%" cy="12%" r="76%">
      <stop offset="0%" stop-color="#D69D55" stop-opacity="0.40"/>
      <stop offset="55%" stop-color="#498C78" stop-opacity="0.11"/>
      <stop offset="100%" stop-color="#0D1320" stop-opacity="0"/>
    </radialGradient>
    <radialGradient id="signalGlow" cx="84%" cy="18%" r="58%">
      <stop offset="0%" stop-color="#C94563" stop-opacity="0.26"/>
      <stop offset="100%" stop-color="#0D1320" stop-opacity="0"/>
    </radialGradient>
    <filter id="soft"><feGaussianBlur stdDeviation="32"/></filter>
    <filter id="grain" x="0" y="0" width="100%" height="100%">
      <feTurbulence type="fractalNoise" baseFrequency="0.68" numOctaves="2" seed="1142"/>
      <feColorMatrix type="saturate" values="0"/>
      <feComponentTransfer><feFuncA type="table" tableValues="0 0.042"/></feComponentTransfer>
    </filter>
  </defs>
  <rect width="1920" height="1080" fill="url(#bg)"/>
  <rect width="1920" height="1080" fill="url(#profileGlow)"/>
  <rect width="1920" height="1080" fill="url(#signalGlow)"/>
  <circle cx="1522" cy="212" r="127" fill="#C94563" opacity="0.14" filter="url(#soft)"/>
  <ellipse cx="380" cy="226.0" rx="160" ry="72" fill="#498C78" opacity="0.11" filter="url(#soft)"/>
<ellipse cx="570" cy="242.5" rx="188" ry="90" fill="#598375" opacity="0.11" filter="url(#soft)"/>
<ellipse cx="760" cy="275.1" rx="216" ry="72" fill="#697A73" opacity="0.11" filter="url(#soft)"/>
<ellipse cx="950" cy="293.8" rx="160" ry="90" fill="#797170" opacity="0.11" filter="url(#soft)"/>
<ellipse cx="1140" cy="281.4" rx="188" ry="72" fill="#89686E" opacity="0.11" filter="url(#soft)"/>
<ellipse cx="1330" cy="249.3" rx="216" ry="90" fill="#99606B" opacity="0.11" filter="url(#soft)"/>
<ellipse cx="1520" cy="227.1" rx="160" ry="72" fill="#A95768" opacity="0.11" filter="url(#soft)"/>
<path d="M300 210 C238.02992409374323 410,343.3790531343797 650,336 980" fill="none" stroke="#D69D55" stroke-opacity="0.150" stroke-width="8" stroke-linecap="round"/>
<path d="M465 210 C420.97005976068164 410,495.82095816752286 650,501 980" fill="none" stroke="#C89B58" stroke-opacity="0.157" stroke-width="9" stroke-linecap="round"/>
<path d="M630 210 C627.5376415656792 410,631.7236509040246 650,666 980" fill="none" stroke="#BA9A5C" stroke-opacity="0.164" stroke-width="10" stroke-linecap="round"/>
<path d="M795 210 C835.4265797241782 410,766.7013941930753 650,831 980" fill="none" stroke="#AC9860" stroke-opacity="0.171" stroke-width="8" stroke-linecap="round"/>
<path d="M960 210 C1021.6217152159634 410,916.8647993488257 650,996 980" fill="none" stroke="#9E9663" stroke-opacity="0.178" stroke-width="9" stroke-linecap="round"/>
<path d="M1125 210 C1174.7492664846877 410,1090.1755134607185 650,1161 980" fill="none" stroke="#909466" stroke-opacity="0.185" stroke-width="10" stroke-linecap="round"/>
<path d="M1290 210 C1301.1802538270035 410,1282.1738223210975 650,1326 980" fill="none" stroke="#81936A" stroke-opacity="0.192" stroke-width="8" stroke-linecap="round"/>
<path d="M1455 210 C1421.611668068117 410,1478.371832352318 650,1491 980" fill="none" stroke="#73916E" stroke-opacity="0.199" stroke-width="9" stroke-linecap="round"/>
<path d="M1620 210 C1559.9600045233503 410,1662.0279968336547 650,1656 980" fill="none" stroke="#658F71" stroke-opacity="0.206" stroke-width="10" stroke-linecap="round"/>
  <path d="M -80 731.0 C 190 768.5, 300 728.5, 460 828.0 C 730 830.2, 840 790.2, 1000 772.2 C 1270 731.3, 1380 691.3, 1540 761.9 C 1810 823.2, 1920 783.2, 2080 833.7 L 2020 1080 L -80 1080 Z" fill="#0D1320" opacity="0.52"/>
  <path d="M115 890 C480 820,760 910,1050 825 C1325 750,1540 842,1835 760" fill="none" stroke="#D69D55" stroke-opacity="0.16" stroke-width="3"/>
  <g opacity="0.52">
    <line x1="960" y1="165" x2="960" y2="925" stroke="#C94563" stroke-opacity="0.055" stroke-width="1.4"/>
    <line x1="180" y1="540" x2="1740" y2="540" stroke="#D69D55" stroke-opacity="0.055" stroke-width="1.4"/>
  </g>
  <rect width="1920" height="1080" filter="url(#grain)" opacity="0.62"/>
</svg>
