<svg xmlns="http://www.w3.org/2000/svg" width="1920" height="1080" viewBox="0 0 1920 1080">
  <defs>
    <linearGradient id="bg" x1="0" y1="0" x2="1" y2="1">
      <stop offset="0%" stop-color="#121826"/>
      <stop offset="48%" stop-color="#060A15"/>
      <stop offset="100%" stop-color="#02050E"/>
    </linearGradient>
    <radialGradient id="profileGlow" cx="22%" cy="12%" r="76%">
      <stop offset="0%" stop-color="#6EA8FF" stop-opacity="0.40"/>
      <stop offset="55%" stop-color="#8683FF" stop-opacity="0.11"/>
      <stop offset="100%" stop-color="#02050E" stop-opacity="0"/>
    </radialGradient>
    <radialGradient id="signalGlow" cx="84%" cy="18%" r="58%">
      <stop offset="0%" stop-color="#94E2D5" stop-opacity="0.26"/>
      <stop offset="100%" stop-color="#02050E" stop-opacity="0"/>
    </radialGradient>
    <filter id="soft"><feGaussianBlur stdDeviation="32"/></filter>
    <filter id="grain" x="0" y="0" width="100%" height="100%">
      <feTurbulence type="fractalNoise" baseFrequency="0.68" numOctaves="2" seed="1064"/>
      <feColorMatrix type="saturate" values="0"/>
      <feComponentTransfer><feFuncA type="table" tableValues="0 0.042"/></feComponentTransfer>
    </filter>
  </defs>
  <rect width="1920" height="1080" fill="url(#bg)"/>
  <rect width="1920" height="1080" fill="url(#profileGlow)"/>
  <rect width="1920" height="1080" fill="url(#signalGlow)"/>
  <circle cx="1624" cy="254" r="119" fill="#94E2D5" opacity="0.09" filter="url(#soft)"/>
  
    <g opacity="0.360">
      <polygon points="960.0,220.0 1176.5,345.0 1176.5,595.0 960.0,720.0 743.5,595.0 743.5,345.0" fill="#FFFFFF" fill-opacity="0.030" stroke="#6EA8FF" stroke-opacity="0.45" stroke-width="2.4"/>
      <line x1="960" y1="470" x2="960.0" y2="220.0" stroke="#8683FF" stroke-opacity="0.137" stroke-width="2"/>
<line x1="960" y1="470" x2="1176.5" y2="345.0" stroke="#8683FF" stroke-opacity="0.137" stroke-width="2"/>
<line x1="960" y1="470" x2="1176.5" y2="595.0" stroke="#8683FF" stroke-opacity="0.137" stroke-width="2"/>
<line x1="960" y1="470" x2="960.0" y2="720.0" stroke="#8683FF" stroke-opacity="0.137" stroke-width="2"/>
<line x1="960" y1="470" x2="743.5" y2="595.0" stroke="#8683FF" stroke-opacity="0.137" stroke-width="2"/>
<line x1="960" y1="470" x2="743.5" y2="345.0" stroke="#8683FF" stroke-opacity="0.137" stroke-width="2"/>
      <circle cx="960" cy="470" r="19" fill="#FFFFFF" fill-opacity="0.55"/>
    </g>
    
    <g opacity="0.250">
      <polygon points="960.0,352.0 1062.2,411.0 1062.2,529.0 960.0,588.0 857.8,529.0 857.8,411.0" fill="#FFFFFF" fill-opacity="0.030" stroke="#94E2D5" stroke-opacity="0.45" stroke-width="2.4"/>
      <line x1="960" y1="470" x2="960.0" y2="352.0" stroke="#6EA8FF" stroke-opacity="0.095" stroke-width="2"/>
<line x1="960" y1="470" x2="1062.2" y2="411.0" stroke="#6EA8FF" stroke-opacity="0.095" stroke-width="2"/>
<line x1="960" y1="470" x2="1062.2" y2="529.0" stroke="#6EA8FF" stroke-opacity="0.095" stroke-width="2"/>
<line x1="960" y1="470" x2="960.0" y2="588.0" stroke="#6EA8FF" stroke-opacity="0.095" stroke-width="2"/>
<line x1="960" y1="470" x2="857.8" y2="529.0" stroke="#6EA8FF" stroke-opacity="0.095" stroke-width="2"/>
<line x1="960" y1="470" x2="857.8" y2="411.0" stroke="#6EA8FF" stroke-opacity="0.095" stroke-width="2"/>
      <circle cx="960" cy="470" r="9" fill="#FFFFFF" fill-opacity="0.55"/>
    </g>
    
    <g opacity="0.180">
      <polygon points="1540.0,177.0 1616.2,221.0 1616.2,309.0 1540.0,353.0 1463.8,309.0 1463.8,221.0" fill="#FFFFFF" fill-opacity="0.030" stroke="#8683FF" stroke-opacity="0.45" stroke-width="2.4"/>
      <line x1="1540" y1="265" x2="1540.0" y2="177.0" stroke="#94E2D5" stroke-opacity="0.068" stroke-width="2"/>
<line x1="1540" y1="265" x2="1616.2" y2="221.0" stroke="#94E2D5" stroke-opacity="0.068" stroke-width="2"/>
<line x1="1540" y1="265" x2="1616.2" y2="309.0" stroke="#94E2D5" stroke-opacity="0.068" stroke-width="2"/>
<line x1="1540" y1="265" x2="1540.0" y2="353.0" stroke="#94E2D5" stroke-opacity="0.068" stroke-width="2"/>
<line x1="1540" y1="265" x2="1463.8" y2="309.0" stroke="#94E2D5" stroke-opacity="0.068" stroke-width="2"/>
<line x1="1540" y1="265" x2="1463.8" y2="221.0" stroke="#94E2D5" stroke-opacity="0.068" stroke-width="2"/>
      <circle cx="1540" cy="265" r="6" fill="#FFFFFF" fill-opacity="0.55"/>
    </g>
    
  <path d="M -80 830.4 C 190 772.7, 300 732.7, 460 731.3 C 730 761.4, 840 721.4, 1000 822.9 C 1270 833.9, 1380 793.9, 1540 779.8 C 1810 732.6, 1920 692.6, 2080 755.2 L 2020 1080 L -80 1080 Z" fill="#02050E" opacity="0.52"/>
  <path d="M115 890 C480 820,760 910,1050 825 C1325 750,1540 842,1835 760" fill="none" stroke="#6EA8FF" stroke-opacity="0.16" stroke-width="3"/>
  <g opacity="0.7">
    <line x1="960" y1="165" x2="960" y2="925" stroke="#94E2D5" stroke-opacity="0.055" stroke-width="1.4"/>
    <line x1="180" y1="540" x2="1740" y2="540" stroke="#6EA8FF" stroke-opacity="0.055" stroke-width="1.4"/>
  </g>
  <rect width="1920" height="1080" filter="url(#grain)" opacity="0.62"/>
</svg>
