<svg xmlns="http://www.w3.org/2000/svg" width="1920" height="1080" viewBox="0 0 1920 1080">
  <defs>
    <linearGradient id="bg" x1="0" y1="0" x2="1" y2="1">
      <stop offset="0%" stop-color="#505A78"/>
      <stop offset="48%" stop-color="#182032"/>
      <stop offset="100%" stop-color="#0D1320"/>
    </linearGradient>
    <radialGradient id="profileGlow" cx="22%" cy="12%" r="76%">
      <stop offset="0%" stop-color="#8E80F0" stop-opacity="0.40"/>
      <stop offset="55%" stop-color="#63A0F3" stop-opacity="0.11"/>
      <stop offset="100%" stop-color="#0D1320" stop-opacity="0"/>
    </radialGradient>
    <radialGradient id="signalGlow" cx="84%" cy="18%" r="58%">
      <stop offset="0%" stop-color="#00D4FF" stop-opacity="0.26"/>
      <stop offset="100%" stop-color="#0D1320" stop-opacity="0"/>
    </radialGradient>
    <filter id="soft"><feGaussianBlur stdDeviation="32"/></filter>
    <filter id="grain" x="0" y="0" width="100%" height="100%">
      <feTurbulence type="fractalNoise" baseFrequency="0.68" numOctaves="2" seed="1233"/>
      <feColorMatrix type="saturate" values="0"/>
      <feComponentTransfer><feFuncA type="table" tableValues="0 0.042"/></feComponentTransfer>
    </filter>
  </defs>
  <rect width="1920" height="1080" fill="url(#bg)"/>
  <rect width="1920" height="1080" fill="url(#profileGlow)"/>
  <rect width="1920" height="1080" fill="url(#signalGlow)"/>
  <circle cx="1613" cy="183" r="148" fill="#00D4FF" opacity="0.14" filter="url(#soft)"/>
  <path d="M180 170 H1650 Q1720 170 1720 240" fill="none" stroke="#8E80F0" stroke-opacity="0.15" stroke-width="2.4"/>
<circle cx="180" cy="170" r="5" fill="#00D4FF" opacity="0.38"/>
<path d="M235 274 H1606 Q1676 274 1676 344" fill="none" stroke="#7C8AF2" stroke-opacity="0.15" stroke-width="2.4"/>
<circle cx="235" cy="274" r="5" fill="#00D4FF" opacity="0.38"/>
<path d="M290 378 H1562 Q1632 378 1632 448" fill="none" stroke="#6A95F4" stroke-opacity="0.15" stroke-width="2.4"/>
<circle cx="290" cy="378" r="5" fill="#00D4FF" opacity="0.38"/>
<path d="M180 482 H1518 Q1588 482 1588 552" fill="none" stroke="#59A0F6" stroke-opacity="0.15" stroke-width="2.4"/>
<circle cx="180" cy="482" r="5" fill="#00D4FF" opacity="0.38"/>
<path d="M235 586 H1650 Q1720 586 1720 656" fill="none" stroke="#47AAF8" stroke-opacity="0.15" stroke-width="2.4"/>
<circle cx="235" cy="586" r="5" fill="#00D4FF" opacity="0.38"/>
<path d="M290 690 H1606 Q1676 690 1676 760" fill="none" stroke="#35B4F9" stroke-opacity="0.15" stroke-width="2.4"/>
<circle cx="290" cy="690" r="5" fill="#00D4FF" opacity="0.38"/>
<path d="M180 794 H1562 Q1632 794 1632 864" fill="none" stroke="#24BFFB" stroke-opacity="0.15" stroke-width="2.4"/>
<circle cx="180" cy="794" r="5" fill="#00D4FF" opacity="0.38"/>
<path d="M235 898 H1518 Q1588 898 1588 968" fill="none" stroke="#12CAFD" stroke-opacity="0.15" stroke-width="2.4"/>
<circle cx="235" cy="898" r="5" fill="#00D4FF" opacity="0.38"/>
    <g opacity="0.220">
      <polygon points="1510.0,672.0 1586.2,716.0 1586.2,804.0 1510.0,848.0 1433.8,804.0 1433.8,716.0" fill="#FFFFFF" fill-opacity="0.030" stroke="#8E80F0" stroke-opacity="0.45" stroke-width="2.4"/>
      <line x1="1510" y1="760" x2="1510.0" y2="672.0" stroke="#63A0F3" stroke-opacity="0.084" stroke-width="2"/>
<line x1="1510" y1="760" x2="1586.2" y2="716.0" stroke="#63A0F3" stroke-opacity="0.084" stroke-width="2"/>
<line x1="1510" y1="760" x2="1586.2" y2="804.0" stroke="#63A0F3" stroke-opacity="0.084" stroke-width="2"/>
<line x1="1510" y1="760" x2="1510.0" y2="848.0" stroke="#63A0F3" stroke-opacity="0.084" stroke-width="2"/>
<line x1="1510" y1="760" x2="1433.8" y2="804.0" stroke="#63A0F3" stroke-opacity="0.084" stroke-width="2"/>
<line x1="1510" y1="760" x2="1433.8" y2="716.0" stroke="#63A0F3" stroke-opacity="0.084" stroke-width="2"/>
      <circle cx="1510" cy="760" r="6" fill="#FFFFFF" fill-opacity="0.55"/>
    </g>
    
  <path d="M -80 838.8 C 190 806.8, 300 766.8, 460 745.7 C 730 736.9, 840 696.9, 1000 792.1 C 1270 837.8, 1380 797.8, 1540 813.2 C 1810 751.0, 1920 711.0, 2080 734.1 L 2020 1080 L -80 1080 Z" fill="#0D1320" opacity="0.52"/>
  <path d="M115 890 C480 820,760 910,1050 825 C1325 750,1540 842,1835 760" fill="none" stroke="#8E80F0" stroke-opacity="0.16" stroke-width="3"/>
  <g opacity="0.52">
    <line x1="960" y1="165" x2="960" y2="925" stroke="#00D4FF" stroke-opacity="0.055" stroke-width="1.4"/>
    <line x1="180" y1="540" x2="1740" y2="540" stroke="#8E80F0" stroke-opacity="0.055" stroke-width="1.4"/>
  </g>
  <rect width="1920" height="1080" filter="url(#grain)" opacity="0.62"/>
</svg>
