<svg xmlns="http://www.w3.org/2000/svg" width="1920" height="1080" viewBox="0 0 1920 1080">
  <defs>
    <linearGradient id="sky" x1="0" y1="0" x2="1" y2="1">
      <stop offset="0%" stop-color="#EAF3FF"/>
      <stop offset="46%" stop-color="#9FB7DD"/>
      <stop offset="100%" stop-color="#5A6F9B"/>
    </linearGradient>
    <radialGradient id="glowA" cx="18%" cy="12%" r="76%">
      <stop offset="0%" stop-color="#F9C147" stop-opacity="0.44"/>
      <stop offset="55%" stop-color="#FA808A" stop-opacity="0.12"/>
      <stop offset="100%" stop-color="#5A6F9B" stop-opacity="0"/>
    </radialGradient>
    <radialGradient id="glowB" cx="86%" cy="18%" r="60%">
      <stop offset="0%" stop-color="#FA808A" stop-opacity="0.38"/>
      <stop offset="100%" stop-color="#5A6F9B" stop-opacity="0"/>
    </radialGradient>
    <filter id="soft"><feGaussianBlur stdDeviation="34"/></filter>
    <filter id="grain" x="0" y="0" width="100%" height="100%">
      <feTurbulence type="fractalNoise" baseFrequency="0.74" numOctaves="2" seed="154"/>
      <feColorMatrix type="saturate" values="0"/>
      <feComponentTransfer><feFuncA type="table" tableValues="0 0.050"/></feComponentTransfer>
    </filter>
  </defs>
  <rect width="1920" height="1080" fill="url(#sky)"/>
  <rect width="1920" height="1080" fill="url(#glowA)"/>
  <rect width="1920" height="1080" fill="url(#glowB)"/>
  <circle cx="1614" cy="214" r="129" fill="#F4C7A1" opacity="0.2" filter="url(#soft)"/>
  <rect x="0" y="0" width="28" height="1080" fill="#F9C147" opacity="0.050"/>
<rect x="120" y="0" width="28" height="1080" fill="#FA808A" opacity="0.050"/>
<rect x="240" y="0" width="28" height="1080" fill="#F9C147" opacity="0.050"/>
<rect x="360" y="0" width="28" height="1080" fill="#FA808A" opacity="0.050"/>
<rect x="480" y="0" width="28" height="1080" fill="#F9C147" opacity="0.050"/>
<rect x="600" y="0" width="28" height="1080" fill="#FA808A" opacity="0.050"/>
<rect x="720" y="0" width="28" height="1080" fill="#F9C147" opacity="0.050"/>
<rect x="840" y="0" width="28" height="1080" fill="#FA808A" opacity="0.050"/>
<rect x="960" y="0" width="28" height="1080" fill="#F9C147" opacity="0.050"/>
<rect x="1080" y="0" width="28" height="1080" fill="#FA808A" opacity="0.050"/>
<rect x="1200" y="0" width="28" height="1080" fill="#F9C147" opacity="0.050"/>
<rect x="1320" y="0" width="28" height="1080" fill="#FA808A" opacity="0.050"/>
<rect x="1440" y="0" width="28" height="1080" fill="#F9C147" opacity="0.050"/>
<rect x="1560" y="0" width="28" height="1080" fill="#FA808A" opacity="0.050"/>
<rect x="1680" y="0" width="28" height="1080" fill="#F9C147" opacity="0.050"/>
<rect x="1800" y="0" width="28" height="1080" fill="#FA808A" opacity="0.050"/>
<path d="M0 80 L1920 -40" stroke="#FA808A" stroke-opacity="0.075" stroke-width="18"/>
<path d="M0 230 L1920 110" stroke="#FA808A" stroke-opacity="0.075" stroke-width="18"/>
<path d="M0 380 L1920 260" stroke="#FA808A" stroke-opacity="0.075" stroke-width="18"/>
<path d="M0 530 L1920 410" stroke="#FA808A" stroke-opacity="0.075" stroke-width="18"/>
<path d="M0 680 L1920 560" stroke="#FA808A" stroke-opacity="0.075" stroke-width="18"/>
<path d="M0 830 L1920 710" stroke="#FA808A" stroke-opacity="0.075" stroke-width="18"/>
<path d="M0 980 L1920 860" stroke="#FA808A" stroke-opacity="0.075" stroke-width="18"/>
  <path d="M -80 807.4 C 190 769.6, 300 729.6, 460 785.6 C 730 834.1, 840 794.1, 1000 850.5 C 1270 813.0, 1380 773.0, 1540 771.5 C 1810 781.3, 1920 741.3, 2080 829.3 L 2020 1080 L -80 1080 Z" fill="#5A6F9B" opacity="0.32"/>
  <path d="M100 880 C420 828,680 905,980 840 C1260 780,1510 850,1840 790" fill="none" stroke="#F9C147" stroke-opacity="0.16" stroke-width="3"/>
  
    <g opacity="0.160">
      <polygon points="1720.0,742.0 1787.5,781.0 1787.5,859.0 1720.0,898.0 1652.5,859.0 1652.5,781.0" fill="#FFFFFF" fill-opacity="0.030" stroke="#F9C147" stroke-opacity="0.45" stroke-width="2.4"/>
      <line x1="1720" y1="820" x2="1720.0" y2="742.0" stroke="#FA808A" stroke-opacity="0.061" stroke-width="2"/>
<line x1="1720" y1="820" x2="1787.5" y2="781.0" stroke="#FA808A" stroke-opacity="0.061" stroke-width="2"/>
<line x1="1720" y1="820" x2="1787.5" y2="859.0" stroke="#FA808A" stroke-opacity="0.061" stroke-width="2"/>
<line x1="1720" y1="820" x2="1720.0" y2="898.0" stroke="#FA808A" stroke-opacity="0.061" stroke-width="2"/>
<line x1="1720" y1="820" x2="1652.5" y2="859.0" stroke="#FA808A" stroke-opacity="0.061" stroke-width="2"/>
<line x1="1720" y1="820" x2="1652.5" y2="781.0" stroke="#FA808A" stroke-opacity="0.061" stroke-width="2"/>
      <circle cx="1720" cy="820" r="6" fill="#FFFFFF" fill-opacity="0.55"/>
    </g>
    
  <rect width="1920" height="1080" filter="url(#grain)" opacity="0.65"/>
</svg>
