<svg xmlns="http://www.w3.org/2000/svg" width="1920" height="1080" viewBox="0 0 1920 1080">
  <defs>
    <linearGradient id="sky" x1="0" y1="0" x2="1" y2="1">
      <stop offset="0%" stop-color="#F7FBFF"/>
      <stop offset="46%" stop-color="#AEC2DB"/>
      <stop offset="100%" stop-color="#526A8F"/>
    </linearGradient>
    <radialGradient id="glowA" cx="18%" cy="12%" r="76%">
      <stop offset="0%" stop-color="#A09CFB" stop-opacity="0.44"/>
      <stop offset="55%" stop-color="#48BFF9" stop-opacity="0.12"/>
      <stop offset="100%" stop-color="#526A8F" stop-opacity="0"/>
    </radialGradient>
    <radialGradient id="glowB" cx="86%" cy="18%" r="60%">
      <stop offset="0%" stop-color="#48BFF9" stop-opacity="0.38"/>
      <stop offset="100%" stop-color="#526A8F" stop-opacity="0"/>
    </radialGradient>
    <filter id="soft"><feGaussianBlur stdDeviation="34"/></filter>
    <filter id="grain" x="0" y="0" width="100%" height="100%">
      <feTurbulence type="fractalNoise" baseFrequency="0.74" numOctaves="2" seed="231"/>
      <feColorMatrix type="saturate" values="0"/>
      <feComponentTransfer><feFuncA type="table" tableValues="0 0.050"/></feComponentTransfer>
    </filter>
  </defs>
  <rect width="1920" height="1080" fill="url(#sky)"/>
  <rect width="1920" height="1080" fill="url(#glowA)"/>
  <rect width="1920" height="1080" fill="url(#glowB)"/>
  <circle cx="1481" cy="201" r="126" fill="#8FC9FF" opacity="0.2" filter="url(#soft)"/>
  <ellipse cx="980" cy="520" rx="440" ry="130" fill="none" stroke="#A09CFB" stroke-opacity="0.180" stroke-width="2.2" transform="rotate(-18 960 540)"/>
<ellipse cx="1012" cy="496" rx="526" ry="154" fill="none" stroke="#8AA5FA" stroke-opacity="0.152" stroke-width="2.2" transform="rotate(-10 960 540)"/>
<ellipse cx="1044" cy="472" rx="612" ry="178" fill="none" stroke="#74AEFA" stroke-opacity="0.124" stroke-width="2.2" transform="rotate(-2 960 540)"/>
<ellipse cx="1076" cy="448" rx="698" ry="202" fill="none" stroke="#5EB6FA" stroke-opacity="0.096" stroke-width="2.2" transform="rotate(6 960 540)"/>
<ellipse cx="1108" cy="424" rx="784" ry="226" fill="none" stroke="#48BFF9" stroke-opacity="0.068" stroke-width="2.2" transform="rotate(14 960 540)"/>
  <path d="M -80 768.2 C 190 799.7, 300 759.7, 460 844.9 C 730 843.7, 840 803.7, 1000 797.6 C 1270 768.0, 1380 728.0, 1540 794.4 C 1810 841.5, 1920 801.5, 2080 846.7 L 2020 1080 L -80 1080 Z" fill="#526A8F" opacity="0.32"/>
  <path d="M100 880 C420 828,680 905,980 840 C1260 780,1510 850,1840 790" fill="none" stroke="#A09CFB" stroke-opacity="0.16" stroke-width="3"/>
  
    <g opacity="0.160">
      <polygon points="1720.0,742.0 1787.5,781.0 1787.5,859.0 1720.0,898.0 1652.5,859.0 1652.5,781.0" fill="#FFFFFF" fill-opacity="0.030" stroke="#A09CFB" stroke-opacity="0.45" stroke-width="2.4"/>
      <line x1="1720" y1="820" x2="1720.0" y2="742.0" stroke="#48BFF9" stroke-opacity="0.061" stroke-width="2"/>
<line x1="1720" y1="820" x2="1787.5" y2="781.0" stroke="#48BFF9" stroke-opacity="0.061" stroke-width="2"/>
<line x1="1720" y1="820" x2="1787.5" y2="859.0" stroke="#48BFF9" stroke-opacity="0.061" stroke-width="2"/>
<line x1="1720" y1="820" x2="1720.0" y2="898.0" stroke="#48BFF9" stroke-opacity="0.061" stroke-width="2"/>
<line x1="1720" y1="820" x2="1652.5" y2="859.0" stroke="#48BFF9" stroke-opacity="0.061" stroke-width="2"/>
<line x1="1720" y1="820" x2="1652.5" y2="781.0" stroke="#48BFF9" stroke-opacity="0.061" stroke-width="2"/>
      <circle cx="1720" cy="820" r="6" fill="#FFFFFF" fill-opacity="0.55"/>
    </g>
    
  <rect width="1920" height="1080" filter="url(#grain)" opacity="0.65"/>
</svg>
