<svg xmlns="http://www.w3.org/2000/svg" width="1920" height="1080" viewBox="0 0 1920 1080">
  <defs>
    <linearGradient id="sky" x1="0" y1="0" x2="1" y2="1">
      <stop offset="0%" stop-color="#F7FBFF"/>
      <stop offset="46%" stop-color="#AEC2DB"/>
      <stop offset="100%" stop-color="#526A8F"/>
    </linearGradient>
    <radialGradient id="glowA" cx="18%" cy="12%" r="76%">
      <stop offset="0%" stop-color="#77B1FF" stop-opacity="0.44"/>
      <stop offset="55%" stop-color="#8C8AFF" stop-opacity="0.12"/>
      <stop offset="100%" stop-color="#526A8F" stop-opacity="0"/>
    </radialGradient>
    <radialGradient id="glowB" cx="86%" cy="18%" r="60%">
      <stop offset="0%" stop-color="#8C8AFF" stop-opacity="0.38"/>
      <stop offset="100%" stop-color="#526A8F" stop-opacity="0"/>
    </radialGradient>
    <filter id="soft"><feGaussianBlur stdDeviation="34"/></filter>
    <filter id="grain" x="0" y="0" width="100%" height="100%">
      <feTurbulence type="fractalNoise" baseFrequency="0.74" numOctaves="2" seed="42"/>
      <feColorMatrix type="saturate" values="0"/>
      <feComponentTransfer><feFuncA type="table" tableValues="0 0.050"/></feComponentTransfer>
    </filter>
  </defs>
  <rect width="1920" height="1080" fill="url(#sky)"/>
  <rect width="1920" height="1080" fill="url(#glowA)"/>
  <rect width="1920" height="1080" fill="url(#glowB)"/>
  <circle cx="1502" cy="192" r="97" fill="#8FC9FF" opacity="0.2" filter="url(#soft)"/>

    <g opacity="0.520">
      <polygon points="960.0,253.0 1172.2,375.5 1172.2,620.5 960.0,743.0 747.8,620.5 747.8,375.5" fill="#FFFFFF" fill-opacity="0.030" stroke="#77B1FF" stroke-opacity="0.45" stroke-width="2.4"/>
      <line x1="960" y1="498" x2="960.0" y2="253.0" stroke="#8C8AFF" stroke-opacity="0.198" stroke-width="2"/>
<line x1="960" y1="498" x2="1172.2" y2="375.5" stroke="#8C8AFF" stroke-opacity="0.198" stroke-width="2"/>
<line x1="960" y1="498" x2="1172.2" y2="620.5" stroke="#8C8AFF" stroke-opacity="0.198" stroke-width="2"/>
<line x1="960" y1="498" x2="960.0" y2="743.0" stroke="#8C8AFF" stroke-opacity="0.198" stroke-width="2"/>
<line x1="960" y1="498" x2="747.8" y2="620.5" stroke="#8C8AFF" stroke-opacity="0.198" stroke-width="2"/>
<line x1="960" y1="498" x2="747.8" y2="375.5" stroke="#8C8AFF" stroke-opacity="0.198" stroke-width="2"/>
      <circle cx="960" cy="498" r="18" fill="#FFFFFF" fill-opacity="0.55"/>
    </g>

    <g opacity="0.240">
      <polygon points="1540.0,133.0 1637.0,189.0 1637.0,301.0 1540.0,357.0 1443.0,301.0 1443.0,189.0" fill="#FFFFFF" fill-opacity="0.030" stroke="#8C8AFF" stroke-opacity="0.45" stroke-width="2.4"/>
      <line x1="1540" y1="245" x2="1540.0" y2="133.0" stroke="#77B1FF" stroke-opacity="0.091" stroke-width="2"/>
<line x1="1540" y1="245" x2="1637.0" y2="189.0" stroke="#77B1FF" stroke-opacity="0.091" stroke-width="2"/>
<line x1="1540" y1="245" x2="1637.0" y2="301.0" stroke="#77B1FF" stroke-opacity="0.091" stroke-width="2"/>
<line x1="1540" y1="245" x2="1540.0" y2="357.0" stroke="#77B1FF" stroke-opacity="0.091" stroke-width="2"/>
<line x1="1540" y1="245" x2="1443.0" y2="301.0" stroke="#77B1FF" stroke-opacity="0.091" stroke-width="2"/>
<line x1="1540" y1="245" x2="1443.0" y2="189.0" stroke="#77B1FF" stroke-opacity="0.091" stroke-width="2"/>
      <circle cx="1540" cy="245" r="8" fill="#FFFFFF" fill-opacity="0.55"/>
    </g>

  <path d="M -80 771.5 C 190 781.3, 300 741.3, 460 829.3 C 730 851.6, 840 811.6, 1000 818.5 C 1270 774.1, 1380 734.1, 1540 777.5 C 1810 824.2, 1920 784.2, 2080 852.0 L 2020 1080 L -80 1080 Z" fill="#526A8F" opacity="0.32"/>
  <path d="M100 880 C420 828,680 905,980 840 C1260 780,1510 850,1840 790" fill="none" stroke="#77B1FF" stroke-opacity="0.16" stroke-width="3"/>

    <g opacity="0.220">
      <polygon points="1720.0,742.0 1787.5,781.0 1787.5,859.0 1720.0,898.0 1652.5,859.0 1652.5,781.0" fill="#FFFFFF" fill-opacity="0.030" stroke="#77B1FF" stroke-opacity="0.45" stroke-width="2.4"/>
      <line x1="1720" y1="820" x2="1720.0" y2="742.0" stroke="#8C8AFF" stroke-opacity="0.084" stroke-width="2"/>
<line x1="1720" y1="820" x2="1787.5" y2="781.0" stroke="#8C8AFF" stroke-opacity="0.084" stroke-width="2"/>
<line x1="1720" y1="820" x2="1787.5" y2="859.0" stroke="#8C8AFF" stroke-opacity="0.084" stroke-width="2"/>
<line x1="1720" y1="820" x2="1720.0" y2="898.0" stroke="#8C8AFF" stroke-opacity="0.084" stroke-width="2"/>
<line x1="1720" y1="820" x2="1652.5" y2="859.0" stroke="#8C8AFF" stroke-opacity="0.084" stroke-width="2"/>
<line x1="1720" y1="820" x2="1652.5" y2="781.0" stroke="#8C8AFF" stroke-opacity="0.084" stroke-width="2"/>
      <circle cx="1720" cy="820" r="6" fill="#FFFFFF" fill-opacity="0.55"/>
    </g>

  <rect width="1920" height="1080" filter="url(#grain)" opacity="0.65"/>
</svg>
