<svg xmlns="http://www.w3.org/2000/svg" width="1920" height="1080" viewBox="0 0 1920 1080">
  <defs>
    <linearGradient id="bg" x1="0" y1="0" x2="1" y2="1">
      <stop offset="0%" stop-color="#F3F7FC"/>
      <stop offset="48%" stop-color="#A5AFBE"/>
      <stop offset="100%" stop-color="#3C4859"/>
    </linearGradient>
    <radialGradient id="profileGlow" cx="22%" cy="12%" r="76%">
      <stop offset="0%" stop-color="#EC843D" stop-opacity="0.40"/>
      <stop offset="55%" stop-color="#926DF1" stop-opacity="0.11"/>
      <stop offset="100%" stop-color="#3C4859" stop-opacity="0"/>
    </radialGradient>
    <radialGradient id="signalGlow" cx="84%" cy="18%" r="58%">
      <stop offset="0%" stop-color="#22C55E" stop-opacity="0.26"/>
      <stop offset="100%" stop-color="#3C4859" stop-opacity="0"/>
    </radialGradient>
    <filter id="soft"><feGaussianBlur stdDeviation="32"/></filter>
    <filter id="grain" x="0" y="0" width="100%" height="100%">
      <feTurbulence type="fractalNoise" baseFrequency="0.68" numOctaves="2" seed="1558"/>
      <feColorMatrix type="saturate" values="0"/>
      <feComponentTransfer><feFuncA type="table" tableValues="0 0.042"/></feComponentTransfer>
    </filter>
  </defs>
  <rect width="1920" height="1080" fill="url(#bg)"/>
  <rect width="1920" height="1080" fill="url(#profileGlow)"/>
  <rect width="1920" height="1080" fill="url(#signalGlow)"/>
  <circle cx="1578" cy="268" r="123" fill="#22C55E" opacity="0.14" filter="url(#soft)"/>
  <path d="M80 240 C310 150,440 340,660 240 S1010 150,1230 240 S1580 340,1840 240" fill="none" stroke="#EC843D" stroke-opacity="0.200" stroke-width="4"/>
<path d="M80 324 C310 234,440 424,660 324 S1010 234,1230 324 S1580 424,1840 324" fill="none" stroke="#D38C41" stroke-opacity="0.185" stroke-width="5"/>
<path d="M80 408 C310 318,440 508,660 408 S1010 318,1230 408 S1580 508,1840 408" fill="none" stroke="#BA9445" stroke-opacity="0.170" stroke-width="6"/>
<path d="M80 492 C310 402,440 592,660 492 S1010 402,1230 492 S1580 592,1840 492" fill="none" stroke="#A09C49" stroke-opacity="0.155" stroke-width="7"/>
<path d="M80 576 C310 486,440 676,660 576 S1010 486,1230 576 S1580 676,1840 576" fill="none" stroke="#87A44E" stroke-opacity="0.140" stroke-width="4"/>
<path d="M80 660 C310 570,440 760,660 660 S1010 570,1230 660 S1580 760,1840 660" fill="none" stroke="#6EAD52" stroke-opacity="0.125" stroke-width="5"/>
<path d="M80 744 C310 654,440 844,660 744 S1010 654,1230 744 S1580 844,1840 744" fill="none" stroke="#54B556" stroke-opacity="0.110" stroke-width="6"/>
<path d="M80 828 C310 738,440 928,660 828 S1010 738,1230 828 S1580 928,1840 828" fill="none" stroke="#3BBD5A" stroke-opacity="0.095" stroke-width="7"/>
    <g opacity="0.200">
      <polygon points="1680.0,704.0 1745.8,742.0 1745.8,818.0 1680.0,856.0 1614.2,818.0 1614.2,742.0" fill="#FFFFFF" fill-opacity="0.030" stroke="#926DF1" stroke-opacity="0.45" stroke-width="2.4"/>
      <line x1="1680" y1="780" x2="1680.0" y2="704.0" stroke="#22C55E" stroke-opacity="0.076" stroke-width="2"/>
<line x1="1680" y1="780" x2="1745.8" y2="742.0" stroke="#22C55E" stroke-opacity="0.076" stroke-width="2"/>
<line x1="1680" y1="780" x2="1745.8" y2="818.0" stroke="#22C55E" stroke-opacity="0.076" stroke-width="2"/>
<line x1="1680" y1="780" x2="1680.0" y2="856.0" stroke="#22C55E" stroke-opacity="0.076" stroke-width="2"/>
<line x1="1680" y1="780" x2="1614.2" y2="818.0" stroke="#22C55E" stroke-opacity="0.076" stroke-width="2"/>
<line x1="1680" y1="780" x2="1614.2" y2="742.0" stroke="#22C55E" stroke-opacity="0.076" stroke-width="2"/>
      <circle cx="1680" cy="780" r="5" fill="#FFFFFF" fill-opacity="0.55"/>
    </g>
    
  <path d="M -80 772.7 C 190 830.4, 300 790.4, 460 827.7 C 730 768.1, 840 728.1, 1000 731.0 C 1270 765.8, 1380 725.8, 1540 826.2 C 1810 831.7, 1920 791.7, 2080 775.1 L 2020 1080 L -80 1080 Z" fill="#3C4859" opacity="0.3"/>
  <path d="M115 890 C480 820,760 910,1050 825 C1325 750,1540 842,1835 760" fill="none" stroke="#EC843D" stroke-opacity="0.16" stroke-width="3"/>
  <g opacity="0.52">
    <line x1="960" y1="165" x2="960" y2="925" stroke="#22C55E" stroke-opacity="0.055" stroke-width="1.4"/>
    <line x1="180" y1="540" x2="1740" y2="540" stroke="#EC843D" stroke-opacity="0.055" stroke-width="1.4"/>
  </g>
  <rect width="1920" height="1080" filter="url(#grain)" opacity="0.62"/>
</svg>
