<svg xmlns="http://www.w3.org/2000/svg" width="1920" height="1080" viewBox="0 0 1920 1080">
  <defs>
    <linearGradient id="bg" x1="0" y1="0" x2="1" y2="1">
      <stop offset="0%" stop-color="#070B14"/>
      <stop offset="48%" stop-color="#070B16"/>
      <stop offset="100%" stop-color="#02040A"/>
    </linearGradient>
    <radialGradient id="profileGlow" cx="22%" cy="12%" r="76%">
      <stop offset="0%" stop-color="#45C5CB" stop-opacity="0.40"/>
      <stop offset="55%" stop-color="#4AB5F8" stop-opacity="0.11"/>
      <stop offset="100%" stop-color="#02040A" stop-opacity="0"/>
    </radialGradient>
    <radialGradient id="signalGlow" cx="84%" cy="18%" r="58%">
      <stop offset="0%" stop-color="#A7F3D0" stop-opacity="0.26"/>
      <stop offset="100%" stop-color="#02040A" stop-opacity="0"/>
    </radialGradient>
    <filter id="soft"><feGaussianBlur stdDeviation="32"/></filter>
    <filter id="grain" x="0" y="0" width="100%" height="100%">
      <feTurbulence type="fractalNoise" baseFrequency="0.68" numOctaves="2" seed="1350"/>
      <feColorMatrix type="saturate" values="0"/>
      <feComponentTransfer><feFuncA type="table" tableValues="0 0.042"/></feComponentTransfer>
    </filter>
  </defs>
  <rect width="1920" height="1080" fill="url(#bg)"/>
  <rect width="1920" height="1080" fill="url(#profileGlow)"/>
  <rect width="1920" height="1080" fill="url(#signalGlow)"/>
  <circle cx="1550" cy="180" r="125" fill="#A7F3D0" opacity="0.09" filter="url(#soft)"/>
  
        <path d="M960 170 C1135 230 1268 242 1388 260 C1360 585 1236 794 960 930 C684 794 560 585 532 260 C652 242 785 230 960 170Z"
              fill="#02040A" fill-opacity="0.18" stroke="#45C5CB" stroke-opacity="0.34" stroke-width="3"/>
        <path d="M960 244 L1210 326 C1182 580 1086 724 960 806 C834 724 738 580 710 326Z"
              fill="none" stroke="#A7F3D0" stroke-opacity="0.18" stroke-width="2"/>
        
    <g opacity="0.200">
      <polygon points="960.0,342.0 1114.2,431.0 1114.2,609.0 960.0,698.0 805.8,609.0 805.8,431.0" fill="#FFFFFF" fill-opacity="0.030" stroke="#45C5CB" stroke-opacity="0.45" stroke-width="2.4"/>
      <line x1="960" y1="520" x2="960.0" y2="342.0" stroke="#4AB5F8" stroke-opacity="0.076" stroke-width="2"/>
<line x1="960" y1="520" x2="1114.2" y2="431.0" stroke="#4AB5F8" stroke-opacity="0.076" stroke-width="2"/>
<line x1="960" y1="520" x2="1114.2" y2="609.0" stroke="#4AB5F8" stroke-opacity="0.076" stroke-width="2"/>
<line x1="960" y1="520" x2="960.0" y2="698.0" stroke="#4AB5F8" stroke-opacity="0.076" stroke-width="2"/>
<line x1="960" y1="520" x2="805.8" y2="609.0" stroke="#4AB5F8" stroke-opacity="0.076" stroke-width="2"/>
<line x1="960" y1="520" x2="805.8" y2="431.0" stroke="#4AB5F8" stroke-opacity="0.076" stroke-width="2"/>
      <circle cx="960" cy="520" r="13" fill="#FFFFFF" fill-opacity="0.55"/>
    </g>
    
        
  <path d="M -80 743.2 C 190 803.3, 300 763.3, 460 839.0 C 730 802.8, 840 762.8, 1000 742.9 C 1270 739.0, 1380 699.0, 1540 796.4 C 1810 838.6, 1920 798.6, 2080 809.4 L 2020 1080 L -80 1080 Z" fill="#02040A" opacity="0.52"/>
  <path d="M115 890 C480 820,760 910,1050 825 C1325 750,1540 842,1835 760" fill="none" stroke="#45C5CB" stroke-opacity="0.16" stroke-width="3"/>
  <g opacity="0.7">
    <line x1="960" y1="165" x2="960" y2="925" stroke="#A7F3D0" stroke-opacity="0.055" stroke-width="1.4"/>
    <line x1="180" y1="540" x2="1740" y2="540" stroke="#45C5CB" stroke-opacity="0.055" stroke-width="1.4"/>
  </g>
  <rect width="1920" height="1080" filter="url(#grain)" opacity="0.62"/>
</svg>
