<svg xmlns="http://www.w3.org/2000/svg" width="1920" height="1080" viewBox="0 0 1920 1080">
  <defs>
    <linearGradient id="bg" x1="0" y1="0" x2="1" y2="1">
      <stop offset="0%" stop-color="#505A78"/>
      <stop offset="48%" stop-color="#182032"/>
      <stop offset="100%" stop-color="#0D1320"/>
    </linearGradient>
    <radialGradient id="profileGlow" cx="22%" cy="12%" r="76%">
      <stop offset="0%" stop-color="#EE78B6" stop-opacity="0.40"/>
      <stop offset="55%" stop-color="#AE8CEF" stop-opacity="0.11"/>
      <stop offset="100%" stop-color="#0D1320" stop-opacity="0"/>
    </radialGradient>
    <radialGradient id="signalGlow" cx="84%" cy="18%" r="58%">
      <stop offset="0%" stop-color="#FBCFE8" stop-opacity="0.26"/>
      <stop offset="100%" stop-color="#0D1320" stop-opacity="0"/>
    </radialGradient>
    <filter id="soft"><feGaussianBlur stdDeviation="32"/></filter>
    <filter id="grain" x="0" y="0" width="100%" height="100%">
      <feTurbulence type="fractalNoise" baseFrequency="0.68" numOctaves="2" seed="1415"/>
      <feColorMatrix type="saturate" values="0"/>
      <feComponentTransfer><feFuncA type="table" tableValues="0 0.042"/></feComponentTransfer>
    </filter>
  </defs>
  <rect width="1920" height="1080" fill="url(#bg)"/>
  <rect width="1920" height="1080" fill="url(#profileGlow)"/>
  <rect width="1920" height="1080" fill="url(#signalGlow)"/>
  <circle cx="1615" cy="245" r="120" fill="#FBCFE8" opacity="0.14" filter="url(#soft)"/>
  <path d="M-120 210 C420 60,850 535.1,2040 170" fill="none" stroke="#EE78B6" stroke-opacity="0.220" stroke-width="34" filter="url(#soft)"/>
<path d="M-90 298 C420 138,850 510.8,2040 238" fill="none" stroke="#E57BBE" stroke-opacity="0.202" stroke-width="32" filter="url(#soft)"/>
<path d="M-60 386 C420 216,850 403.1,2040 306" fill="none" stroke="#DC7EC6" stroke-opacity="0.184" stroke-width="30" filter="url(#soft)"/>
<path d="M-30 474 C420 294,850 310.9,2040 374" fill="none" stroke="#D381CE" stroke-opacity="0.166" stroke-width="28" filter="url(#soft)"/>
<path d="M0 562 C420 372,850 319.0,2040 442" fill="none" stroke="#C983D7" stroke-opacity="0.148" stroke-width="26" filter="url(#soft)"/>
<path d="M30 650 C420 450,850 420.0,2040 510" fill="none" stroke="#C086DF" stroke-opacity="0.130" stroke-width="24" filter="url(#soft)"/>
<path d="M60 738 C420 528,850 521.0,2040 578" fill="none" stroke="#B789E7" stroke-opacity="0.112" stroke-width="22" filter="url(#soft)"/>
  <path d="M -80 836.8 C 190 816.7, 300 776.7, 460 754.4 C 730 732.8, 840 692.8, 1000 780.7 C 1270 834.3, 1380 794.3, 1540 822.3 C 1810 760.6, 1920 720.6, 2080 731.4 L 2020 1080 L -80 1080 Z" fill="#0D1320" opacity="0.52"/>
  <path d="M115 890 C480 820,760 910,1050 825 C1325 750,1540 842,1835 760" fill="none" stroke="#EE78B6" stroke-opacity="0.16" stroke-width="3"/>
  <g opacity="0.52">
    <line x1="960" y1="165" x2="960" y2="925" stroke="#FBCFE8" stroke-opacity="0.055" stroke-width="1.4"/>
    <line x1="180" y1="540" x2="1740" y2="540" stroke="#EE78B6" stroke-opacity="0.055" stroke-width="1.4"/>
  </g>
  <rect width="1920" height="1080" filter="url(#grain)" opacity="0.62"/>
</svg>
