<svg xmlns="http://www.w3.org/2000/svg" width="1920" height="1080" viewBox="0 0 1920 1080">
  <defs>
    <linearGradient id="sky" x1="0" y1="0" x2="1" y2="1">
      <stop offset="0%" stop-color="#F2D8A8"/>
      <stop offset="46%" stop-color="#724F49"/>
      <stop offset="100%" stop-color="#2B2236"/>
    </linearGradient>
    <radialGradient id="glowA" cx="18%" cy="12%" r="76%">
      <stop offset="0%" stop-color="#BA8673" stop-opacity="0.44"/>
      <stop offset="55%" stop-color="#3ECEB6" stop-opacity="0.12"/>
      <stop offset="100%" stop-color="#2B2236" stop-opacity="0"/>
    </radialGradient>
    <radialGradient id="glowB" cx="86%" cy="18%" r="60%">
      <stop offset="0%" stop-color="#3ECEB6" stop-opacity="0.38"/>
      <stop offset="100%" stop-color="#2B2236" stop-opacity="0"/>
    </radialGradient>
    <filter id="soft"><feGaussianBlur stdDeviation="34"/></filter>
    <filter id="grain" x="0" y="0" width="100%" height="100%">
      <feTurbulence type="fractalNoise" baseFrequency="0.74" numOctaves="2" seed="308"/>
      <feColorMatrix type="saturate" values="0"/>
      <feComponentTransfer><feFuncA type="table" tableValues="0 0.050"/></feComponentTransfer>
    </filter>
  </defs>
  <rect width="1920" height="1080" fill="url(#sky)"/>
  <rect width="1920" height="1080" fill="url(#glowA)"/>
  <rect width="1920" height="1080" fill="url(#glowB)"/>
  <circle cx="1558" cy="188" r="123" fill="#6EA8FF" opacity="0.2" filter="url(#soft)"/>
  <path d="M -80 607.9 C 190 662.5, 300 622.5, 460 633.9 C 730 560.1, 840 520.1, 1000 539.5 C 1270 599.4, 1380 559.4, 1540 660.1 C 1810 640.8, 1920 600.8, 2080 567.1 L 2020 1080 L -80 1080 Z" fill="#392C3C" opacity="0.800"/>
<path d="M -80 730.3 C 190 719.1, 300 679.1, 460 653.2 C 730 620.3, 840 580.3, 1000 664.3 C 1270 726.5, 1380 686.5, 1540 724.2 C 1810 660.4, 1920 620.4, 2080 620.0 L 2020 1080 L -80 1080 Z" fill="#453441" opacity="0.700"/>
<path d="M -80 800.2 C 190 745.0, 300 705.0, 460 704.4 C 730 732.5, 840 692.5, 1000 791.9 C 1270 803.5, 1380 763.5, 1540 751.9 C 1810 705.8, 1920 665.8, 2080 726.5 L 2020 1080 L -80 1080 Z" fill="#503C46" opacity="0.600"/>
<path d="M -80 834.8 C 190 790.9, 300 750.9, 460 804.4 C 730 857.3, 840 817.3, 1000 879.2 C 1270 840.9, 1380 800.9, 1540 793.4 C 1810 800.0, 1920 760.0, 2080 851.8 L 2020 1080 L -80 1080 Z" fill="#5C444B" opacity="0.500"/>
  <path d="M -80 815.2 C 190 851.0, 300 811.0, 460 832.2 C 730 783.8, 840 743.8, 1000 770.3 C 1270 809.6, 1380 769.6, 1540 849.5 C 1810 836.8, 1920 796.8, 2080 788.4 L 2020 1080 L -80 1080 Z" fill="#2B2236" opacity="0.56"/>
  <path d="M100 880 C420 828,680 905,980 840 C1260 780,1510 850,1840 790" fill="none" stroke="#BA8673" stroke-opacity="0.16" stroke-width="3"/>

    <g opacity="0.160">
      <polygon points="1720.0,742.0 1787.5,781.0 1787.5,859.0 1720.0,898.0 1652.5,859.0 1652.5,781.0" fill="#FFFFFF" fill-opacity="0.030" stroke="#BA8673" stroke-opacity="0.45" stroke-width="2.4"/>
      <line x1="1720" y1="820" x2="1720.0" y2="742.0" stroke="#3ECEB6" stroke-opacity="0.061" stroke-width="2"/>
<line x1="1720" y1="820" x2="1787.5" y2="781.0" stroke="#3ECEB6" stroke-opacity="0.061" stroke-width="2"/>
<line x1="1720" y1="820" x2="1787.5" y2="859.0" stroke="#3ECEB6" stroke-opacity="0.061" stroke-width="2"/>
<line x1="1720" y1="820" x2="1720.0" y2="898.0" stroke="#3ECEB6" stroke-opacity="0.061" stroke-width="2"/>
<line x1="1720" y1="820" x2="1652.5" y2="859.0" stroke="#3ECEB6" stroke-opacity="0.061" stroke-width="2"/>
<line x1="1720" y1="820" x2="1652.5" y2="781.0" stroke="#3ECEB6" stroke-opacity="0.061" stroke-width="2"/>
      <circle cx="1720" cy="820" r="6" fill="#FFFFFF" fill-opacity="0.55"/>
    </g>

  <rect width="1920" height="1080" filter="url(#grain)" opacity="0.65"/>
</svg>
