<svg xmlns="http://www.w3.org/2000/svg" width="1920" height="1080" viewBox="0 0 1920 1080">
  <defs>
    <linearGradient id="sky" x1="0" y1="0" x2="1" y2="1">
      <stop offset="0%" stop-color="#C8D6EA"/>
      <stop offset="46%" stop-color="#485670"/>
      <stop offset="100%" stop-color="#212B3C"/>
    </linearGradient>
    <radialGradient id="glowA" cx="18%" cy="12%" r="76%">
      <stop offset="0%" stop-color="#C59667" stop-opacity="0.44"/>
      <stop offset="55%" stop-color="#44D8AE" stop-opacity="0.12"/>
      <stop offset="100%" stop-color="#212B3C" stop-opacity="0"/>
    </radialGradient>
    <radialGradient id="glowB" cx="86%" cy="18%" r="60%">
      <stop offset="0%" stop-color="#44D8AE" stop-opacity="0.38"/>
      <stop offset="100%" stop-color="#212B3C" stop-opacity="0"/>
    </radialGradient>
    <filter id="soft"><feGaussianBlur stdDeviation="34"/></filter>
    <filter id="grain" x="0" y="0" width="100%" height="100%">
      <feTurbulence type="fractalNoise" baseFrequency="0.74" numOctaves="2" seed="336"/>
      <feColorMatrix type="saturate" values="0"/>
      <feComponentTransfer><feFuncA type="table" tableValues="0 0.050"/></feComponentTransfer>
    </filter>
  </defs>
  <rect width="1920" height="1080" fill="url(#sky)"/>
  <rect width="1920" height="1080" fill="url(#glowA)"/>
  <rect width="1920" height="1080" fill="url(#glowB)"/>
  <circle cx="1586" cy="216" r="111" fill="#94E2D5" opacity="0.2" filter="url(#soft)"/>
  <path d="M -80 609.6 C 190 543.6, 300 503.6, 460 552.7 C 730 624.8, 840 584.8, 1000 663.9 C 1270 617.9, 1380 577.9, 1540 548.1 C 1810 547.4, 1920 507.4, 2080 616.8 L 2020 1080 L -80 1080 Z" fill="#313640" opacity="0.800"/>
<path d="M -80 634.4 C 190 627.3, 300 587.3, 460 687.7 C 730 735.1, 840 695.1, 1000 706.5 C 1270 639.9, 1380 599.9, 1540 624.0 C 1810 680.0, 1920 640.0, 2080 733.3 L 2020 1080 L -80 1080 Z" fill="#3F3E44" opacity="0.700"/>
<path d="M -80 706.0 C 190 752.8, 300 712.8, 460 803.8 C 730 791.2, 840 751.2, 1000 731.7 C 1270 704.6, 1380 664.6, 1540 745.9 C 1810 800.7, 1920 760.7, 2080 796.0 L 2020 1080 L -80 1080 Z" fill="#4C4747" opacity="0.600"/>
<path d="M -80 820.8 C 190 871.1, 300 831.1, 460 872.0 C 730 822.3, 840 782.3, 1000 788.2 C 1270 815.0, 1380 775.0, 1540 867.2 C 1810 875.1, 1920 835.1, 2080 828.3 L 2020 1080 L -80 1080 Z" fill="#594F4B" opacity="0.500"/>
  <path d="M -80 816.3 C 190 773.0, 300 733.0, 460 779.0 C 730 826.3, 840 786.3, 1000 851.9 C 1270 821.8, 1380 781.8, 1540 775.9 C 1810 775.5, 1920 735.5, 2080 821.0 L 2020 1080 L -80 1080 Z" fill="#212B3C" opacity="0.56"/>
  <path d="M100 880 C420 828,680 905,980 840 C1260 780,1510 850,1840 790" fill="none" stroke="#C59667" stroke-opacity="0.16" stroke-width="3"/>
  
    <g opacity="0.160">
      <polygon points="1720.0,742.0 1787.5,781.0 1787.5,859.0 1720.0,898.0 1652.5,859.0 1652.5,781.0" fill="#FFFFFF" fill-opacity="0.030" stroke="#C59667" stroke-opacity="0.45" stroke-width="2.4"/>
      <line x1="1720" y1="820" x2="1720.0" y2="742.0" stroke="#44D8AE" stroke-opacity="0.061" stroke-width="2"/>
<line x1="1720" y1="820" x2="1787.5" y2="781.0" stroke="#44D8AE" stroke-opacity="0.061" stroke-width="2"/>
<line x1="1720" y1="820" x2="1787.5" y2="859.0" stroke="#44D8AE" stroke-opacity="0.061" stroke-width="2"/>
<line x1="1720" y1="820" x2="1720.0" y2="898.0" stroke="#44D8AE" stroke-opacity="0.061" stroke-width="2"/>
<line x1="1720" y1="820" x2="1652.5" y2="859.0" stroke="#44D8AE" stroke-opacity="0.061" stroke-width="2"/>
<line x1="1720" y1="820" x2="1652.5" y2="781.0" stroke="#44D8AE" stroke-opacity="0.061" stroke-width="2"/>
      <circle cx="1720" cy="820" r="6" fill="#FFFFFF" fill-opacity="0.55"/>
    </g>
    
  <rect width="1920" height="1080" filter="url(#grain)" opacity="0.65"/>
</svg>
