<svg xmlns="http://www.w3.org/2000/svg" width="1920" height="1080" viewBox="0 0 1920 1080">
  <defs>
    <linearGradient id="sky" x1="0" y1="0" x2="1" y2="1">
      <stop offset="0%" stop-color="#11111B"/>
      <stop offset="46%" stop-color="#0D101E"/>
      <stop offset="100%" stop-color="#04060F"/>
    </linearGradient>
    <radialGradient id="glowA" cx="18%" cy="12%" r="76%">
      <stop offset="0%" stop-color="#BA8673" stop-opacity="0.44"/>
      <stop offset="55%" stop-color="#3ECEB6" stop-opacity="0.12"/>
      <stop offset="100%" stop-color="#04060F" stop-opacity="0"/>
    </radialGradient>
    <radialGradient id="glowB" cx="86%" cy="18%" r="60%">
      <stop offset="0%" stop-color="#3ECEB6" stop-opacity="0.38"/>
      <stop offset="100%" stop-color="#04060F" stop-opacity="0"/>
    </radialGradient>
    <filter id="soft"><feGaussianBlur stdDeviation="34"/></filter>
    <filter id="grain" x="0" y="0" width="100%" height="100%">
      <feTurbulence type="fractalNoise" baseFrequency="0.74" numOctaves="2" seed="322"/>
      <feColorMatrix type="saturate" values="0"/>
      <feComponentTransfer><feFuncA type="table" tableValues="0 0.050"/></feComponentTransfer>
    </filter>
  </defs>
  <rect width="1920" height="1080" fill="url(#sky)"/>
  <rect width="1920" height="1080" fill="url(#glowA)"/>
  <rect width="1920" height="1080" fill="url(#glowB)"/>
  <circle cx="1572" cy="202" r="97" fill="#6EA8FF" opacity="0.12" filter="url(#soft)"/>
  <path d="M -80 664.0 C 190 622.2, 300 582.2, 460 550.8 C 730 544.9, 840 504.9, 1000 612.4 C 1270 663.3, 1380 623.3, 1540 630.0 C 1810 556.7, 1920 516.7, 2080 541.1 L 2020 1080 L -80 1080 Z" fill="#161319" opacity="0.800"/>
<path d="M -80 710.0 C 190 643.1, 300 603.1, 460 622.7 C 730 675.9, 840 635.9, 1000 731.9 C 1270 716.1, 1380 676.1, 1540 649.5 C 1810 620.9, 1920 580.9, 2080 668.3 L 2020 1080 L -80 1080 Z" fill="#251D21" opacity="0.700"/>
<path d="M -80 735.0 C 190 704.1, 300 664.1, 460 742.3 C 730 798.7, 840 758.7, 1000 798.2 C 1270 741.5, 1380 701.5, 1540 704.1 C 1810 735.8, 1920 695.8, 2080 794.4 L 2020 1080 L -80 1080 Z" fill="#332729" opacity="0.600"/>
<path d="M -80 788.6 C 190 812.1, 300 772.1, 460 864.8 C 730 876.5, 840 836.5, 1000 831.6 C 1270 789.9, 1380 749.9, 1540 806.9 C 1810 860.0, 1920 820.0, 2080 878.4 L 2020 1080 L -80 1080 Z" fill="#423231" opacity="0.500"/>
  <path d="M -80 852.0 C 190 824.6, 300 784.6, 460 777.7 C 730 773.9, 840 733.9, 1000 818.1 C 1270 851.6, 1380 811.6, 1540 829.7 C 1810 781.6, 1920 741.6, 2080 771.3 L 2020 1080 L -80 1080 Z" fill="#04060F" opacity="0.56"/>
  <path d="M100 880 C420 828,680 905,980 840 C1260 780,1510 850,1840 790" fill="none" stroke="#BA8673" stroke-opacity="0.16" stroke-width="3"/>
  
    <g opacity="0.160">
      <polygon points="1720.0,742.0 1787.5,781.0 1787.5,859.0 1720.0,898.0 1652.5,859.0 1652.5,781.0" fill="#FFFFFF" fill-opacity="0.030" stroke="#BA8673" stroke-opacity="0.45" stroke-width="2.4"/>
      <line x1="1720" y1="820" x2="1720.0" y2="742.0" stroke="#3ECEB6" stroke-opacity="0.061" stroke-width="2"/>
<line x1="1720" y1="820" x2="1787.5" y2="781.0" stroke="#3ECEB6" stroke-opacity="0.061" stroke-width="2"/>
<line x1="1720" y1="820" x2="1787.5" y2="859.0" stroke="#3ECEB6" stroke-opacity="0.061" stroke-width="2"/>
<line x1="1720" y1="820" x2="1720.0" y2="898.0" stroke="#3ECEB6" stroke-opacity="0.061" stroke-width="2"/>
<line x1="1720" y1="820" x2="1652.5" y2="859.0" stroke="#3ECEB6" stroke-opacity="0.061" stroke-width="2"/>
<line x1="1720" y1="820" x2="1652.5" y2="781.0" stroke="#3ECEB6" stroke-opacity="0.061" stroke-width="2"/>
      <circle cx="1720" cy="820" r="6" fill="#FFFFFF" fill-opacity="0.55"/>
    </g>
    
  <rect width="1920" height="1080" filter="url(#grain)" opacity="0.65"/>
</svg>
