<svg xmlns="http://www.w3.org/2000/svg" width="1920" height="1080" viewBox="0 0 1920 1080">
  <defs>
    <linearGradient id="sky" x1="0" y1="0" x2="1" y2="1">
      <stop offset="0%" stop-color="#F4F8FF"/>
      <stop offset="46%" stop-color="#A2C2E4"/>
      <stop offset="100%" stop-color="#53709B"/>
    </linearGradient>
    <radialGradient id="glowA" cx="18%" cy="12%" r="76%">
      <stop offset="0%" stop-color="#CA9463" stop-opacity="0.44"/>
      <stop offset="55%" stop-color="#48D6AC" stop-opacity="0.12"/>
      <stop offset="100%" stop-color="#53709B" stop-opacity="0"/>
    </radialGradient>
    <radialGradient id="glowB" cx="86%" cy="18%" r="60%">
      <stop offset="0%" stop-color="#48D6AC" stop-opacity="0.38"/>
      <stop offset="100%" stop-color="#53709B" stop-opacity="0"/>
    </radialGradient>
    <filter id="soft"><feGaussianBlur stdDeviation="34"/></filter>
    <filter id="grain" x="0" y="0" width="100%" height="100%">
      <feTurbulence type="fractalNoise" baseFrequency="0.74" numOctaves="2" seed="287"/>
      <feColorMatrix type="saturate" values="0"/>
      <feComponentTransfer><feFuncA type="table" tableValues="0 0.050"/></feComponentTransfer>
    </filter>
  </defs>
  <rect width="1920" height="1080" fill="url(#sky)"/>
  <rect width="1920" height="1080" fill="url(#glowA)"/>
  <rect width="1920" height="1080" fill="url(#glowB)"/>
  <circle cx="1537" cy="167" r="102" fill="#A6D8C9" opacity="0.2" filter="url(#soft)"/>
  <path d="M -80 542.5 C 190 554.2, 300 514.2, 460 626.9 C 730 663.7, 840 623.7, 1000 615.7 C 1270 546.8, 1380 506.8, 1540 548.7 C 1810 618.9, 1920 578.9, 2080 663.9 L 2020 1080 L -80 1080 Z" fill="#5F7495" opacity="0.800"/>
<path d="M -80 628.4 C 190 689.7, 300 649.7, 460 735.5 C 730 704.7, 840 664.7, 1000 638.4 C 1270 624.8, 1380 584.8, 1540 682.1 C 1810 733.9, 1920 693.9, 2080 711.3 L 2020 1080 L -80 1080 Z" fill="#687691" opacity="0.700"/>
<path d="M -80 754.6 C 190 804.5, 300 764.5, 460 789.8 C 730 730.1, 840 690.1, 1000 704.9 C 1270 747.7, 1380 707.7, 1540 801.6 C 1810 794.8, 1920 754.8, 2080 736.3 L 2020 1080 L -80 1080 Z" fill="#72798C" opacity="0.600"/>
<path d="M -80 872.0 C 190 871.1, 300 831.1, 460 820.8 C 730 788.1, 840 748.1, 1000 816.5 C 1270 868.3, 1380 828.3, 1540 874.4 C 1810 826.7, 1920 786.7, 2080 788.8 L 2020 1080 L -80 1080 Z" fill="#7B7C88" opacity="0.500"/>
  <path d="M -80 772.3 C 190 780.0, 300 740.0, 460 827.6 C 730 851.8, 840 811.8, 1000 820.3 C 1270 775.1, 1380 735.1, 1540 776.3 C 1810 822.4, 1920 782.4, 2080 852.0 L 2020 1080 L -80 1080 Z" fill="#53709B" opacity="0.32"/>
  <path d="M100 880 C420 828,680 905,980 840 C1260 780,1510 850,1840 790" fill="none" stroke="#CA9463" stroke-opacity="0.16" stroke-width="3"/>

    <g opacity="0.160">
      <polygon points="1720.0,742.0 1787.5,781.0 1787.5,859.0 1720.0,898.0 1652.5,859.0 1652.5,781.0" fill="#FFFFFF" fill-opacity="0.030" stroke="#CA9463" stroke-opacity="0.45" stroke-width="2.4"/>
      <line x1="1720" y1="820" x2="1720.0" y2="742.0" stroke="#48D6AC" stroke-opacity="0.061" stroke-width="2"/>
<line x1="1720" y1="820" x2="1787.5" y2="781.0" stroke="#48D6AC" stroke-opacity="0.061" stroke-width="2"/>
<line x1="1720" y1="820" x2="1787.5" y2="859.0" stroke="#48D6AC" stroke-opacity="0.061" stroke-width="2"/>
<line x1="1720" y1="820" x2="1720.0" y2="898.0" stroke="#48D6AC" stroke-opacity="0.061" stroke-width="2"/>
<line x1="1720" y1="820" x2="1652.5" y2="859.0" stroke="#48D6AC" stroke-opacity="0.061" stroke-width="2"/>
<line x1="1720" y1="820" x2="1652.5" y2="781.0" stroke="#48D6AC" stroke-opacity="0.061" stroke-width="2"/>
      <circle cx="1720" cy="820" r="6" fill="#FFFFFF" fill-opacity="0.55"/>
    </g>

  <rect width="1920" height="1080" filter="url(#grain)" opacity="0.65"/>
</svg>
